<svg preserveAspectRatio="none" width="100%" height="100%" overflow="visible" style="display: block;" viewBox="0 0 70 43.7754" fill="none" xmlns="http://www.w3.org/2000/svg">
<path id="Vector" d="M8.96959 1.08844C9.26533 1.37659 9.5492 1.67346 9.83096 1.97683C9.93915 2.0904 10.0474 2.20396 10.1588 2.32097C10.5184 2.6993 10.8756 3.08012 11.2328 3.46101C11.491 3.73378 11.7495 4.0064 12.008 4.27885C12.5632 4.86434 13.1171 5.45112 13.6701 6.03882C14.4697 6.88851 15.2712 7.73619 16.0732 8.5834C17.3745 9.95824 18.6742 11.3347 19.973 12.7121C21.2342 14.0496 22.496 15.3864 23.7588 16.7221C23.8368 16.8045 23.9147 16.887 23.995 16.9719C24.386 17.3855 24.777 17.799 25.168 18.2125C28.4083 21.6394 31.646 25.069 34.8821 28.5002C35.2931 28.3057 35.5779 28.0897 35.8949 27.7534C35.9851 27.6584 36.0753 27.5634 36.1682 27.4656C36.2662 27.361 36.3642 27.2564 36.4651 27.1486C36.5701 27.0377 36.675 26.9267 36.7832 26.8125C37.1358 26.4394 37.4875 26.0654 37.8391 25.6914C38.0914 25.4242 38.3436 25.157 38.596 24.89C39.1399 24.3141 39.6834 23.7378 40.2266 23.1611C41.013 22.3263 41.8005 21.4926 42.5882 20.6591C43.8676 19.3055 45.1467 17.9514 46.4252 16.5969C46.5018 16.5158 46.5783 16.4347 46.6571 16.3512C47.7423 15.2015 48.8271 14.0513 49.9118 12.901C49.9881 12.82 50.0644 12.7391 50.1431 12.6557C50.2193 12.5749 50.2955 12.494 50.3741 12.4107C51.6465 11.0612 52.92 9.71289 54.1944 8.36544C54.98 7.53472 55.7647 6.70307 56.5482 5.8702C57.1493 5.23144 57.7518 4.59419 58.3548 3.95748C58.6016 3.69647 58.8479 3.43497 59.0936 3.17294C59.4297 2.81479 59.7673 2.45848 60.1055 2.10255C60.2019 1.9989 60.2984 1.89525 60.3977 1.78846C61.4011 0.740143 62.4001 0.105736 63.8313 0.0657873C64.0019 0.0587305 64.1724 0.0516736 64.3481 0.044403C65.7441 0.144786 66.7122 1.18815 67.6362 2.19318C67.8335 2.40752 68.0337 2.61859 68.2344 2.82943C69.337 4.00077 69.9791 4.88346 70 6.56662C69.9662 9.22355 67.7824 10.7999 66.1107 12.558C65.8874 12.7933 65.6642 13.0287 65.441 13.2641C64.9625 13.7685 64.4838 14.2728 64.005 14.7768C63.2473 15.5745 62.4902 16.3726 61.7331 17.1709C60.6714 18.2903 59.6095 19.4095 58.5473 20.5285C58.4465 20.6347 58.4465 20.6347 58.3436 20.7431C57.8664 21.2459 57.3891 21.7487 56.9119 22.2515C56.3662 22.8263 55.8206 23.4011 55.2749 23.976C55.2077 24.0468 55.1404 24.1177 55.0712 24.1906C53.9483 25.3736 52.8258 26.5569 51.7034 27.7403C50.9513 28.5333 50.1988 29.326 49.4461 30.1183C48.9777 30.6116 48.5095 31.1052 48.0414 31.5988C47.8249 31.8271 47.6083 32.0552 47.3915 32.2832C47.0948 32.5953 46.7985 32.9078 46.5023 33.2205C46.3746 33.3544 46.3746 33.3544 46.2444 33.491C45.7359 34.0289 45.2542 34.5845 44.7846 35.1606C44.4929 35.5141 44.1843 35.8476 43.8715 36.1803C43.8081 36.248 43.7447 36.3156 43.6794 36.3853C43.4737 36.6044 43.2675 36.823 43.0612 37.0415C42.9898 37.1173 42.9184 37.193 42.8448 37.2711C42.4676 37.6713 42.09 38.0712 41.712 38.4706C41.3248 38.88 40.9389 39.2908 40.5533 39.7018C40.2534 40.021 39.9527 40.3391 39.6517 40.657C39.5091 40.8079 39.3668 40.9592 39.2249 41.1108C38.049 42.3665 36.8533 43.6241 35.1178 43.7754C33.4339 43.755 32.3861 42.6201 31.2713 41.4394C31.1411 41.3026 31.0109 41.1659 30.8807 41.0292C30.524 40.6545 30.1681 40.2789 29.8124 39.9032C29.4282 39.4977 29.0432 39.093 28.6583 38.6882C27.9047 37.8953 27.1519 37.1016 26.3994 36.3077C25.7875 35.6621 25.1754 35.0168 24.5632 34.3716C22.8265 32.5414 21.0904 30.7106 19.3551 28.879C19.2616 28.7803 19.168 28.6816 19.0717 28.58C18.9781 28.4811 18.8844 28.3823 18.788 28.2805C17.2709 26.6794 15.7525 25.0798 14.2334 23.4807C12.6728 21.8379 11.1131 20.194 9.55459 18.549C8.67992 17.6259 7.80484 16.7032 6.92865 15.7816C6.18259 14.9969 5.43748 14.2113 4.69359 13.4243C4.31429 13.023 3.93457 12.6223 3.55364 12.2228C3.20435 11.8565 2.85637 11.4888 2.50934 11.1201C2.32524 10.9252 2.1398 10.7316 1.95431 10.5382C0.867173 9.37793 0.062144 8.26461 0.0202636 6.59363C0.0135766 6.41369 0.00688962 6.23374 0 6.04833C0.0993068 4.53552 1.13449 3.50477 2.10948 2.50891C2.32524 2.2884 2.53828 2.06525 2.75105 1.84153C4.5996 -0.0820295 6.7507 -0.761464 8.96959 1.08844Z" fill="var(--fill-0, #E9D441)"/>
</svg>
