<svg preserveAspectRatio="none" width="100%" height="100%" overflow="visible" style="display: block;" viewBox="0 0 47 47" fill="none" xmlns="http://www.w3.org/2000/svg">
<g id="icons8-whatsapp-512 1">
<path id="Vector" fill-rule="evenodd" clip-rule="evenodd" d="M35.9901 11.0214C32.674 7.7052 28.2677 5.875 23.5746 5.875C13.9015 5.875 6.02417 13.7466 6.02417 23.4197C6.01843 26.5121 6.82739 29.5299 8.36499 32.192L5.875 41.2856L15.1809 38.8416C17.7397 40.2415 20.6313 40.9758 23.5688 40.9816H23.5746C33.2477 40.9816 41.1193 33.11 41.125 23.4312C41.125 18.7438 39.3005 14.3375 35.9901 11.0214ZM23.5746 38.0154H23.5688C20.9526 38.0154 18.3823 37.3097 16.1448 35.9844L15.6112 35.6688L10.0862 37.1146L11.5607 31.733L11.2164 31.1823C9.75342 28.8586 8.98462 26.1736 8.98462 23.4197C8.98462 15.3817 15.5309 8.84119 23.5803 8.84119C27.476 8.84119 31.1364 10.3616 33.8903 13.1155C36.6442 15.8751 38.1588 19.5355 38.1588 23.4312C38.1588 31.4749 31.6126 38.0154 23.5746 38.0154ZM31.5724 27.0916C31.1364 26.8735 28.9791 25.8121 28.5775 25.6687C28.1759 25.5195 27.8833 25.4507 27.5907 25.8867C27.2981 26.3285 26.4604 27.3153 26.2023 27.6079C25.9498 27.8948 25.6917 27.9349 25.2556 27.7169C24.8138 27.4989 23.4025 27.0342 21.7272 25.5367C20.4248 24.3778 19.5413 22.9377 19.2888 22.5017C19.0306 22.0599 19.2601 21.8247 19.4781 21.6067C19.679 21.4116 19.9199 21.0961 20.1379 20.8379C20.356 20.5854 20.4305 20.4019 20.5797 20.1093C20.7231 19.8167 20.6486 19.5585 20.5396 19.3405C20.4305 19.1224 19.5527 16.9595 19.1855 16.0817C18.8298 15.2268 18.4684 15.3473 18.1987 15.3301C17.9463 15.3186 17.6537 15.3186 17.3611 15.3186C17.0685 15.3186 16.5923 15.4276 16.1907 15.8694C15.7891 16.3054 14.6588 17.3668 14.6588 19.524C14.6588 21.6813 16.2308 23.7697 16.4489 24.0623C16.6669 24.3491 19.5413 28.7783 23.9418 30.6774C24.986 31.1306 25.8007 31.4003 26.4375 31.6011C27.4874 31.9338 28.4456 31.8879 29.2029 31.7789C30.0463 31.6527 31.7961 30.7175 32.1633 29.6906C32.5248 28.6693 32.5248 27.7915 32.4158 27.6079C32.3068 27.4243 32.0142 27.3153 31.5724 27.0916Z" fill="var(--fill-0, #05B864)"/>
</g>
</svg>
