<svg width="590" height="163" viewBox="0 0 590 163" fill="none" xmlns="http://www.w3.org/2000/svg">
<path d="M185.17 162.778L201.709 69.3L131.732 162.778H89.9052L53.2224 69.3L36.6828 162.778H0L28.6132 0H67.9756L117.379 125.664L210.857 0H250.435L221.822 162.778H185.139H185.17Z" fill="white"/>
<path d="M304.55 0L282.19 126.126H399.815L393.316 162.809H239.254L267.868 0.246396L304.55 0.0307925V0Z" fill="white"/>
<path d="M582.058 75.7988C581.165 81.004 579.348 85.9012 576.576 90.4596C573.804 95.018 570.447 98.9912 566.504 102.41C562.562 105.829 558.127 108.539 553.199 110.449C548.271 112.389 543.22 113.344 537.984 113.344H454.146L445.43 162.747H408.747L437.36 0.184784H558.096C563.147 0.184784 567.829 1.17039 572.079 3.07999C576.33 5.02039 579.841 7.69998 582.582 11.1188C585.354 14.5376 587.325 18.5416 588.496 23.0692C589.697 27.6276 589.851 32.4324 588.958 37.4836L582.028 75.7064L582.058 75.7988ZM460.398 76.692H544.482C544.944 76.692 545.314 76.384 545.591 75.7988L552.306 37.576C552.306 37.114 552.09 36.8984 551.628 36.8984H467.544L460.398 76.692Z" fill="white"/>
<path d="M403.203 2.55639C403.11 1.57079 402.556 1.26279 401.447 1.26279C400.338 1.26279 399.907 1.57078 399.353 2.12518L309.201 90.8292C307.014 92.8928 305.752 95.7264 306.46 98.9604C307.384 102.964 311.973 105.182 315.792 104.782C317.24 104.689 318.626 104.196 319.889 103.488C321.152 102.78 321.891 102.102 322.692 101.178L402.556 4.65079C403.049 4.06559 403.295 3.32638 403.234 2.58718L403.203 2.55639Z" fill="#E9D440"/>
</svg>
