<svg preserveAspectRatio="none" width="100%" height="100%" overflow="visible" style="display: block;" viewBox="0 0 99.9401 35.0492" fill="none" xmlns="http://www.w3.org/2000/svg">
<path id="Vector" d="M65.0946 0C57.9985 0 51.657 3.9811 51.657 11.3365C51.657 19.7717 62.9039 20.3542 62.9039 24.5918C62.9039 26.3761 61.0147 27.9734 57.7881 27.9734C53.209 27.9734 49.7865 25.7416 49.7865 25.7416L48.3221 33.164C48.3221 33.164 52.2647 35.0492 57.4992 35.0492C65.2575 35.0492 71.3624 30.8725 71.3624 23.3915C71.3624 14.4782 60.0688 13.9128 60.0688 9.97971C60.0688 8.58179 61.6195 7.05035 64.8369 7.05035C68.467 7.05035 71.4288 8.6735 71.4288 8.6735L72.862 1.5048C72.862 1.5048 69.6394 0 65.0946 0ZM0.171869 0.541086L0 1.62315C0 1.62315 2.9854 2.21448 5.67418 3.39421C9.13617 4.74687 9.38287 5.5344 9.9659 7.98028L16.3195 34.4912H24.8367L37.9579 0.541086H29.4603L21.0291 23.6239L17.5888 4.05776C17.2732 1.81849 15.675 0.541086 13.7187 0.541086H0.171869ZM41.3749 0.541086L34.7088 34.4911H42.812L49.4547 0.540977H41.3749V0.541086ZM86.569 0.541086C84.615 0.541086 83.5798 1.67339 82.8201 3.65203L70.9484 34.4911H79.446L81.0901 29.3512H91.4425L92.4423 34.4911H99.9401L93.399 0.541086H86.569ZM87.6741 9.71333L90.1929 22.453H83.4448L87.6741 9.71333Z" fill="var(--fill-0, #6B6B6B)"/>
</svg>
