<svg preserveAspectRatio="none" width="100%" height="100%" overflow="visible" style="display: block;" viewBox="0 0 137.144 52.1843" fill="none" xmlns="http://www.w3.org/2000/svg">
<g id="pix">
<path id="Vector" d="M10.5131 16.6923C10.7906 16.7724 11.0673 16.8558 11.3427 16.944C11.4495 16.972 11.5563 17.0001 11.6664 17.029C13.1069 17.4264 14.042 18.4408 15.0489 19.5521C15.2834 19.8108 15.5193 20.0679 15.7556 20.3246C16.2568 20.8697 16.7562 21.4166 17.2553 21.9639C17.8346 22.5991 18.4147 23.2335 18.9967 23.8658C19.2279 24.1178 19.4577 24.3713 19.6875 24.6249C20.6329 25.6591 21.4304 26.5138 22.8343 26.6323C24.6168 26.5065 25.6201 25.0654 26.8018 23.7768C27.006 23.5542 27.2107 23.3322 27.4155 23.1103C27.9971 22.4802 28.5781 21.8496 29.1579 21.2178C29.5149 20.8289 29.8727 20.441 30.231 20.0536C30.3661 19.9072 30.5008 19.7605 30.6352 19.6135C32.4155 17.6661 34.0569 16.7722 36.658 16.6603C37.8402 16.6515 38.6163 17.0758 39.4608 17.9702C39.8538 18.3953 40.2235 18.8399 40.5889 19.2923C40.8576 19.6202 41.1379 19.9364 41.417 20.2541C43.334 22.4529 45.1305 24.5241 45.2284 27.702C45.1895 28.9201 44.9364 30.0334 44.4547 31.1327C44.4242 31.206 44.3937 31.2793 44.3622 31.3549C44.0229 32.0773 43.5038 32.6315 42.9909 33.2122C42.6843 33.5608 42.3885 33.9177 42.096 34.2801C38.5153 38.7058 38.5153 38.7058 36.9655 38.8865C36.0833 38.9339 35.237 38.7371 34.3969 38.4601C34.2941 38.4327 34.1913 38.4054 34.0853 38.3773C32.636 37.9759 31.7012 36.9673 30.6872 35.8482C30.4523 35.589 30.2159 35.3315 29.9792 35.0743C29.4772 34.5284 28.9771 33.9806 28.4772 33.4325C27.8966 32.796 27.3154 32.1603 26.7321 31.5267C26.5002 31.2739 26.2697 31.0196 26.0392 30.7653C25.896 30.6094 25.7528 30.4536 25.6095 30.2979C25.5466 30.2276 25.4837 30.1574 25.4189 30.085C24.7121 29.3238 23.9179 28.9106 22.9124 28.8863C21.0363 28.9132 19.9135 30.5601 18.6827 31.9019C18.4737 32.1296 18.2643 32.3567 18.0548 32.5836C17.4599 33.2281 16.8655 33.873 16.2723 34.5192C15.9073 34.9168 15.5414 35.3135 15.1749 35.7096C15.0365 35.8596 14.8984 36.0099 14.7607 36.1606C13.797 37.2142 12.9293 38.0739 11.5698 38.4601C11.4333 38.5023 11.2968 38.5445 11.1561 38.588C9.85562 38.958 8.40986 39.1584 7.14069 38.5823C6.08586 37.8679 5.21575 36.8864 4.36538 35.9157C4.28207 35.8207 4.28207 35.8207 4.19708 35.7237C1.17121 32.2521 1.17121 32.2521 0.440205 30.3915C0.40141 30.2934 0.362615 30.1952 0.322645 30.094C-0.25685 28.2807 -0.0101173 26.1259 0.699725 24.4166C0.972983 23.8266 1.28825 23.3362 1.70417 22.8527C2.06465 22.4291 2.41924 22.0019 2.76715 21.5663C7.27882 15.9622 7.27882 15.9622 10.5131 16.6923Z" fill="var(--fill-0, #5C5C5C)"/>
<path id="Vector_2" d="M23.2575 31.1705C23.7723 31.4316 24.1483 31.8166 24.5451 32.2345C24.6129 32.3049 24.6807 32.3753 24.7505 32.4479C24.8972 32.6003 25.0436 32.753 25.1897 32.9059C25.4219 33.1487 25.6548 33.3908 25.888 33.6326C26.5507 34.3201 27.2119 35.0092 27.8727 35.6986C28.2776 36.121 28.6834 36.5424 29.0897 36.9634C29.2435 37.1231 29.3969 37.2832 29.55 37.4436C31.6684 39.6637 33.4763 40.5417 36.4745 40.8113C35.9852 41.4121 35.4761 41.9788 34.9385 42.5337C34.8582 42.6171 34.7778 42.7005 34.695 42.7864C34.4313 43.0598 34.1673 43.3327 33.9031 43.6056C33.8123 43.6995 33.7215 43.7934 33.6279 43.8901C33.1476 44.3868 32.6669 44.8832 32.186 45.3792C31.6915 45.8893 31.1981 46.4005 30.705 46.912C30.3235 47.3074 29.9412 47.7019 29.5586 48.0962C29.3765 48.2842 29.1946 48.4726 29.0131 48.6612C27.1663 50.579 25.3752 52.0874 22.6215 52.1843C20.8006 52.1155 19.2049 51.5373 17.8314 50.304C17.7266 50.2106 17.7266 50.2106 17.6197 50.1152C16.7048 49.288 15.8494 48.3977 14.9904 47.5099C14.8093 47.3234 14.628 47.1369 14.4468 46.9504C14.0707 46.5633 13.6951 46.1758 13.3198 45.788C12.8378 45.2901 12.3549 44.7933 11.8716 44.2968C11.4989 43.9137 11.1268 43.53 10.7548 43.1462C10.5768 42.9625 10.3985 42.7791 10.2201 42.5958C9.97265 42.3415 9.72596 42.0864 9.47946 41.8311C9.40547 41.7553 9.33149 41.6796 9.25526 41.6016C8.75386 41.0798 8.75386 41.0798 8.75386 40.8113C8.88413 40.8082 9.0144 40.8051 9.14861 40.8019C12.5658 40.6857 14.4348 39.2057 16.768 36.7775C16.9801 36.5568 17.1927 36.3365 17.4055 36.1164C18.009 35.4916 18.6118 34.8662 19.2142 34.2402C19.5854 33.8545 19.9572 33.4694 20.3293 33.0847C20.4702 32.9388 20.6108 32.7927 20.7513 32.6463C20.9466 32.4428 21.1426 32.24 21.3388 32.0374C21.3961 31.9772 21.4535 31.9171 21.5126 31.8551C22.0801 31.272 22.4475 31.0973 23.2575 31.1705Z" fill="var(--fill-0, #5C5C5C)"/>
<path id="Vector_3" d="M25.3628 4.47022C25.4598 4.50833 25.5567 4.54644 25.6566 4.58571C26.2685 4.85711 26.7634 5.24858 27.2647 5.69477C27.3355 5.75768 27.4063 5.82059 27.4793 5.88541C28.4088 6.72317 29.2755 7.62729 30.1465 8.52867C30.3303 8.71814 30.5142 8.90758 30.6981 9.09699C31.0796 9.49027 31.4607 9.88399 31.8416 10.278C32.3306 10.7839 32.8206 11.2887 33.311 11.7931C33.6891 12.1823 34.0666 12.5721 34.444 12.962C34.6247 13.1486 34.8055 13.335 34.9866 13.5212C35.2377 13.7796 35.488 14.0388 35.7381 14.2982C35.8132 14.3752 35.8883 14.4522 35.9657 14.5315C36.4745 15.0615 36.4745 15.0615 36.4745 15.3305C36.3401 15.3336 36.2058 15.3367 36.0674 15.3399C33.9686 15.4096 32.2707 15.9392 30.719 17.4521C30.6458 17.523 30.5725 17.594 30.4971 17.6671C29.1539 18.9814 27.8595 20.3491 26.5544 21.7033C26.0686 22.2074 25.5826 22.7112 25.0961 23.2146C24.9029 23.4147 24.71 23.6152 24.5172 23.8156C24.3999 23.937 24.2827 24.0584 24.1654 24.1798C24.0632 24.2859 23.9609 24.392 23.8556 24.5013C23.5325 24.8167 23.3273 24.8924 22.892 24.9237C22.4504 24.9102 22.2365 24.844 21.9126 24.5346C21.8317 24.4574 21.7508 24.3802 21.6674 24.3007C21.1349 23.767 20.6098 23.2263 20.0882 22.6814C19.8729 22.4566 19.6572 22.2324 19.4414 22.0083C18.8283 21.3718 18.2157 20.7348 17.6043 20.0965C17.2286 19.7043 16.852 19.313 16.4749 18.9223C16.3325 18.7745 16.1905 18.6263 16.0488 18.4778C15.0979 17.4812 14.1485 16.5217 12.8842 15.9564C12.7848 15.9109 12.6855 15.8653 12.5831 15.8183C11.7358 15.4854 10.9493 15.3858 10.0478 15.3154C9.86086 15.2997 9.86086 15.2997 9.67016 15.2838C9.36477 15.2584 9.05935 15.2337 8.75386 15.2098C9.24975 14.5998 9.76691 14.0249 10.3113 13.461C10.3939 13.3749 10.4766 13.2889 10.5617 13.2002C10.833 12.918 11.1046 12.6363 11.3764 12.3547C11.4698 12.2579 11.5632 12.1611 11.6594 12.0613C12.1534 11.5492 12.6477 11.0375 13.1423 10.526C13.6512 9.99976 14.1586 9.47208 14.6658 8.94407C15.0579 8.53632 15.4512 8.12964 15.8447 7.72325C16.0321 7.52925 16.2192 7.33485 16.4059 7.14002C16.6678 6.86688 16.9311 6.59532 17.1948 6.32407C17.2705 6.2445 17.3461 6.16494 17.424 6.08296C19.4791 3.98626 22.6882 3.28199 25.3628 4.47022Z" fill="var(--fill-0, #5C5C5C)"/>
<path id="Vector_4" d="M65.4678 7.81225C65.6145 7.81133 65.6145 7.81133 65.7642 7.8104C66.0861 7.80861 66.408 7.80776 66.7299 7.80708C66.8961 7.80656 66.8961 7.80656 67.0657 7.80602C67.6529 7.80418 68.2401 7.80304 68.8273 7.80251C69.4291 7.80184 70.0309 7.79888 70.6326 7.79537C71.0994 7.79306 71.5662 7.79244 72.033 7.79225C72.2545 7.79188 72.4761 7.7909 72.6977 7.78927C75.7206 7.76859 78.459 8.45228 80.6915 10.8104C80.7969 10.9247 80.9022 11.039 81.0108 11.1567C81.1495 11.3053 81.1495 11.3053 81.2911 11.4568C83.285 13.7155 83.9034 16.6876 83.8901 19.7227C83.8903 19.9114 83.8906 20.1002 83.891 20.289C83.8915 20.681 83.8908 21.0731 83.8892 21.4651C83.8873 21.9621 83.8884 22.459 83.8904 22.956C83.8917 23.3447 83.8913 23.7334 83.8904 24.1221C83.8902 24.3051 83.8904 24.4881 83.8912 24.6711C83.9022 27.8462 82.9652 30.7809 80.8974 33.0745C78.921 35.1281 76.5025 36.1911 73.7663 36.1886C73.5715 36.1899 73.5715 36.1899 73.3727 36.1911C72.9467 36.1934 72.5208 36.1939 72.0948 36.1942C71.7976 36.195 71.5004 36.1958 71.2032 36.1967C70.5821 36.1983 69.961 36.1986 69.3399 36.1985C68.6224 36.1983 67.9049 36.2009 67.1874 36.2048C66.4953 36.2084 65.8032 36.2093 65.1111 36.2092C64.8172 36.2094 64.5233 36.2105 64.2294 36.2124C63.8196 36.2148 63.41 36.2141 63.0002 36.2127C62.8785 36.214 62.7569 36.2154 62.6315 36.2169C61.8152 36.2093 61.8152 36.2093 61.4367 35.9298C61.2124 35.5306 61.2251 35.256 61.2853 34.7984C61.4969 34.5072 61.6617 34.3477 61.9655 34.1827C62.1355 34.1709 62.3059 34.1668 62.4762 34.1665C62.5838 34.166 62.6913 34.1655 62.8021 34.165C62.9798 34.1651 62.9798 34.1651 63.161 34.1652C63.3477 34.1646 63.3477 34.1646 63.5381 34.1639C63.8094 34.163 64.0806 34.1624 64.3519 34.1619C64.7824 34.161 65.2129 34.1591 65.6433 34.1568C66.8678 34.1504 68.0922 34.1444 69.3166 34.1426C70.0652 34.1414 70.8137 34.1377 71.5622 34.1326C71.8465 34.131 72.1309 34.1304 72.4152 34.1307C75.2935 34.1328 77.6501 33.6233 79.7638 31.3506C81.1234 29.6892 81.9201 27.5889 81.9378 25.3597C81.9392 25.1989 81.9407 25.0381 81.9422 24.8724C81.9431 24.6979 81.9439 24.5234 81.9447 24.3488C81.9452 24.2598 81.9456 24.1707 81.9461 24.0789C81.9485 23.6062 81.9501 23.1336 81.9512 22.6609C81.9522 22.2741 81.9545 21.8874 81.9581 21.5006C81.9882 18.2144 81.9065 15.3465 79.7638 12.7574C79.705 12.6822 79.6463 12.607 79.5857 12.5294C78.5905 11.3398 77.2041 10.591 75.796 10.1716C75.7273 10.1505 75.6587 10.1293 75.588 10.1075C74.5455 9.83337 73.4738 9.8849 72.4083 9.884C72.1881 9.88321 71.9678 9.88238 71.7476 9.88151C71.287 9.88005 70.8264 9.87958 70.3658 9.87973C69.7804 9.87975 69.195 9.8764 68.6096 9.87215C68.1548 9.86939 67.7 9.86891 67.2452 9.86904C67.0296 9.86876 66.8141 9.86769 66.5985 9.86576C64.9317 9.85227 63.3269 9.99559 61.8238 10.8643C61.7495 10.9062 61.6753 10.9481 61.5988 10.9914C59.6581 12.1328 58.3718 13.9996 57.6814 16.2509C57.3173 17.6858 57.3835 19.1489 57.3873 20.6252C57.3868 20.935 57.3862 21.2448 57.3854 21.5546C57.3841 22.2191 57.3838 22.8835 57.3843 23.5479C57.3851 24.5091 57.3837 25.4704 57.3817 26.4317C57.3784 27.9926 57.3764 29.5534 57.3755 31.1143C57.3754 31.2075 57.3754 31.3007 57.3753 31.3968C57.3748 32.1535 57.3744 32.9102 57.374 33.6668C57.3737 34.3298 57.3733 34.9927 57.3729 35.6556C57.3728 35.7957 57.3728 35.7957 57.3727 35.9386C57.3718 37.4952 57.3694 39.0519 57.3662 40.6085C57.3642 41.5677 57.3635 42.5268 57.3643 43.486C57.3648 44.2198 57.3636 44.9537 57.3618 45.6875C57.3614 45.9887 57.3615 46.2898 57.3622 46.591C57.3632 47.0013 57.3621 47.4116 57.3604 47.8219C57.3612 47.9417 57.362 48.0614 57.3628 48.1848C57.3581 48.7863 57.3478 49.2145 56.9774 49.6975C56.6269 49.8879 56.3432 49.8568 55.9571 49.8207C55.7083 49.6508 55.7083 49.6508 55.5037 49.3281C55.4353 48.9085 55.4426 48.4928 55.4461 48.0676C55.4454 47.9379 55.4447 47.8082 55.4439 47.6746C55.4421 47.2386 55.4436 46.8026 55.445 46.3666C55.4444 46.0545 55.4436 45.7424 55.4426 45.4303C55.4407 44.6693 55.441 43.9084 55.4423 43.1474C55.4433 42.528 55.4435 41.9087 55.443 41.2894C55.4429 41.2012 55.4429 41.113 55.4428 41.0222C55.4426 40.843 55.4425 40.6638 55.4423 40.4847C55.441 38.8032 55.4425 37.1217 55.445 35.4402C55.447 34.0009 55.4467 32.5617 55.4446 31.1224C55.4421 29.4494 55.4412 27.7764 55.4426 26.1033C55.4427 25.9243 55.4429 25.7453 55.443 25.5664C55.4431 25.4343 55.4431 25.4343 55.4432 25.2995C55.4436 24.6826 55.4429 24.0656 55.4419 23.4487C55.4405 22.6149 55.4415 21.7813 55.4441 20.9476C55.4447 20.6429 55.4445 20.3381 55.4435 20.0334C55.4329 16.5024 56.1086 13.5092 58.4467 10.8965C60.3079 8.91795 62.8772 7.81618 65.4678 7.81225Z" fill="var(--fill-0, #5C5C5C)"/>
<path id="Vector_5" d="M119.887 22.9607C121.121 23.722 122.15 24.9977 123.16 26.0299C123.509 26.3859 123.859 26.7408 124.209 27.0958C124.857 27.7533 125.504 28.4113 126.15 29.0711C126.602 29.5335 127.056 29.9944 127.511 30.4544C127.682 30.6284 127.853 30.803 128.024 30.9781C129.786 32.7877 131.346 33.7758 133.925 33.8209C134.002 33.8223 134.079 33.8237 134.159 33.8251C134.482 33.8307 134.806 33.8362 135.129 33.8383C135.368 33.8401 135.606 33.8447 135.845 33.8498C135.986 33.8515 136.127 33.8532 136.272 33.855C136.701 33.927 136.837 34.0369 137.098 34.3797C137.179 34.7165 137.137 34.9522 137.098 35.3063C136.889 35.6161 136.766 35.6491 136.407 35.7696C133.502 35.9233 130.49 35.8993 128.206 33.8371C127.422 33.118 126.68 32.357 125.934 31.5988C125.668 31.3277 125.401 31.0571 125.133 30.7867C124.374 30.0185 123.615 29.2499 122.858 28.4801C122.393 28.0073 121.926 27.5353 121.46 27.0638C121.283 26.8847 121.106 26.7052 120.929 26.5254C120.683 26.2746 120.436 26.0249 120.189 25.7754C120.117 25.7014 120.045 25.6273 119.97 25.5511C119.46 25.0397 118.94 24.6034 118.185 24.5921C117.184 24.6466 116.499 25.4153 115.835 26.1008C115.708 26.2295 115.708 26.2295 115.579 26.3607C115.396 26.5459 115.215 26.7315 115.033 26.9174C114.745 27.2124 114.456 27.5063 114.166 27.7998C113.344 28.6343 112.523 29.4711 111.703 30.3081C111.2 30.8212 110.696 31.3332 110.192 31.8445C109.908 32.1325 109.626 32.4218 109.344 32.7112C108.272 33.8015 107.268 34.7845 105.795 35.2846C105.67 35.3283 105.545 35.3721 105.417 35.4171C104.517 35.6758 103.657 35.806 102.722 35.8085C102.62 35.8093 102.519 35.8101 102.414 35.8109C102.201 35.812 101.988 35.8126 101.775 35.8125C101.45 35.8131 101.125 35.8173 100.8 35.8216C100.592 35.8223 100.384 35.8228 100.176 35.823C100.08 35.8247 99.9832 35.8263 99.8837 35.828C99.4169 35.8244 99.1849 35.8051 98.7802 35.5491C98.5535 35.3063 98.5535 35.3063 98.4812 35.0746C98.4837 34.9982 98.4862 34.9217 98.4888 34.843C98.4886 34.7665 98.4885 34.6901 98.4883 34.6113C98.5868 34.2612 98.725 34.1372 99.0137 33.9164C99.3618 33.872 99.6691 33.8545 100.017 33.858C100.115 33.8569 100.213 33.8558 100.315 33.8547C100.629 33.8514 100.943 33.851 101.257 33.8512C103.543 33.857 103.543 33.857 105.701 33.149C105.804 33.0997 105.906 33.0504 106.012 32.9997C107.184 32.2252 108.152 31.0988 109.134 30.1001C109.4 29.8299 109.666 29.5602 109.933 29.2907C110.689 28.5251 111.446 27.759 112.201 26.9918C112.664 26.5205 113.129 26.05 113.594 25.58C113.771 25.4017 113.946 25.2231 114.122 25.0442C114.367 24.7939 114.614 24.5448 114.861 24.2959C114.932 24.2227 115.003 24.1495 115.077 24.0741C116.336 22.8127 118.179 22.1092 119.887 22.9607Z" fill="var(--fill-0, #5C5C5C)"/>
<path id="Vector_6" d="M100.094 7.79219C100.201 7.79172 100.309 7.79125 100.419 7.79076C100.647 7.79043 100.875 7.79134 101.102 7.7934C101.445 7.796 101.787 7.79344 102.129 7.79027C105.13 7.78537 107.206 8.75943 109.337 11.0196C109.677 11.3848 110.016 11.7516 110.355 12.1193C110.632 12.4208 110.91 12.7213 111.189 13.0217C111.979 13.8747 112.769 14.7292 113.557 15.5848C114.041 16.1103 114.527 16.6345 115.013 17.1581C115.197 17.3572 115.381 17.5568 115.565 17.7568C115.821 18.0356 116.078 18.313 116.336 18.59C116.411 18.6726 116.486 18.7552 116.563 18.8403C117.042 19.3509 117.434 19.6383 118.126 19.711C118.645 19.6686 118.955 19.5557 119.342 19.1755C119.421 19.0975 119.501 19.0195 119.583 18.9392C119.942 18.5741 120.294 18.2035 120.641 17.8262C120.718 17.7437 120.794 17.6613 120.873 17.5763C121.037 17.3989 121.201 17.2214 121.365 17.0438C121.626 16.7615 121.888 16.4798 122.149 16.1982C122.892 15.398 123.635 14.5974 124.376 13.7954C124.831 13.3032 125.287 12.8119 125.744 12.3212C125.916 12.1354 126.089 11.9493 126.26 11.7628C128.41 9.4307 130.509 7.81854 133.688 7.78975C133.868 7.7901 134.049 7.79131 134.229 7.7934C134.506 7.79608 134.783 7.79338 135.061 7.79027C135.239 7.79059 135.417 7.79122 135.596 7.79219C135.678 7.7912 135.759 7.7902 135.844 7.78917C136.396 7.80032 136.681 7.92892 137.068 8.35038C137.144 8.59675 137.144 8.59675 137.14 8.84313C137.141 8.92443 137.143 9.00573 137.144 9.0895C137.023 9.47909 136.81 9.60742 136.493 9.82862C136.189 9.87494 135.933 9.89459 135.63 9.89069C135.547 9.89185 135.465 9.89301 135.379 9.89421C135.116 9.89773 134.852 9.89812 134.588 9.89791C131.686 9.9029 129.929 10.8001 127.88 13.0008C127.623 13.2787 127.367 13.5573 127.111 13.8363C126.835 14.1369 126.558 14.4365 126.281 14.7358C125.494 15.5861 124.708 16.4375 123.924 17.2908C123.442 17.815 122.959 18.3376 122.474 18.8593C122.291 19.0574 122.108 19.2561 121.926 19.4553C121.672 19.7339 121.415 20.0104 121.158 20.2866C121.084 20.3683 121.011 20.4501 120.934 20.5343C120.157 21.3615 119.28 21.7595 118.188 21.8085C116.672 21.7815 115.726 20.8832 114.71 19.7752C114.63 19.689 114.55 19.6028 114.468 19.5139C114.296 19.3281 114.124 19.142 113.952 18.9556C113.679 18.6597 113.406 18.3646 113.132 18.0698C112.354 17.2317 111.578 16.3922 110.802 15.5522C110.326 15.037 109.85 14.5227 109.372 14.0089C109.192 13.8141 109.011 13.6189 108.831 13.4234C107.196 11.6466 105.6 9.94013 103.126 9.91775C103.027 9.91787 102.928 9.91799 102.826 9.91812C102.611 9.91562 102.397 9.91305 102.182 9.91042C101.848 9.90763 101.513 9.9056 101.178 9.90489C100.853 9.90371 100.528 9.89956 100.202 9.89502C100.103 9.89564 100.003 9.89626 99.9 9.89691C99.4266 9.88865 99.1818 9.86862 98.7717 9.59349C98.5294 9.31539 98.471 9.21684 98.4825 8.84313C98.4824 8.76182 98.4822 8.68052 98.4821 8.59675C98.7125 7.72496 99.3898 7.78534 100.094 7.79219Z" fill="var(--fill-0, #5C5C5C)"/>
<path id="Vector_7" d="M86.3119 7.79015C86.4127 7.78985 86.5136 7.78955 86.6175 7.78924C86.8309 7.78936 87.0443 7.79102 87.2577 7.79412C87.5796 7.79834 87.901 7.79669 88.2229 7.79427C89.8781 7.79561 91.3037 7.95027 92.5557 9.2348C92.6294 9.30894 92.703 9.38308 92.7789 9.45948C93.7703 10.559 94.0768 11.9466 94.0751 13.4369C94.0755 13.5324 94.0758 13.628 94.0762 13.7265C94.0772 14.0455 94.0773 14.3644 94.0775 14.6834C94.0781 14.9126 94.0786 15.1418 94.0793 15.371C94.0808 15.9927 94.0815 16.6143 94.082 17.236C94.0824 17.6243 94.0829 18.0127 94.0834 18.401C94.0849 19.6161 94.0861 20.8312 94.0865 22.0463C94.087 23.4491 94.0891 24.8519 94.0924 26.2547C94.0949 27.3393 94.0961 28.4239 94.0962 29.5084C94.0964 30.1562 94.097 30.8039 94.0991 31.4517C94.101 32.0605 94.1013 32.6694 94.1002 33.2782C94.1001 33.5017 94.1007 33.7252 94.1018 33.9487C94.1033 34.2537 94.1026 34.5586 94.1014 34.8635C94.1028 34.9964 94.1028 34.9964 94.1042 35.1319C94.0987 35.7214 93.9908 36.1415 93.5964 36.5652C92.7636 36.6386 92.7636 36.6386 92.4285 36.3721C92.135 35.9661 92.1449 35.6235 92.1512 35.1303C92.1506 35.0354 92.1499 34.9404 92.1493 34.8426C92.1478 34.5243 92.1495 34.206 92.1512 33.8877C92.1508 33.6595 92.1501 33.4314 92.1493 33.2032C92.1479 32.7116 92.148 32.2201 92.1491 31.7285C92.1509 30.9505 92.1494 30.1726 92.1473 29.3947C92.1437 27.8827 92.1436 26.3707 92.1438 24.8588C92.1439 22.9369 92.1427 21.015 92.1382 19.0932C92.1364 18.3206 92.1365 17.548 92.1379 16.7754C92.1384 16.2935 92.1375 15.8116 92.1363 15.3297C92.136 15.107 92.1363 14.8844 92.1373 14.6617C92.1871 12.6665 92.1871 12.6665 91.3922 10.9274C90.23 9.69982 88.6917 9.91518 87.178 9.92858C86.8764 9.93038 86.575 9.92849 86.2735 9.92631C86.1354 9.92938 86.1354 9.92938 85.9946 9.93251C85.5052 9.92778 85.3236 9.8999 84.924 9.56426C84.6931 9.2348 84.6931 9.2348 84.6208 8.86211C84.8161 7.85529 85.4985 7.77619 86.3119 7.79015Z" fill="var(--fill-0, #5C5C5C)"/>
<path id="Vector_8" d="M93.2205 0.129206C94.0666 0.724837 95.0902 1.74576 95.5506 2.71731C95.5929 3.25978 95.5378 3.71418 95.2413 4.16699C94.9946 4.45033 94.738 4.71311 94.4699 4.97381C94.3809 5.06514 94.292 5.15647 94.2004 5.25057C93.2623 6.19875 93.2623 6.19875 92.5225 6.23096C91.7978 6.1102 91.3772 5.53252 90.8981 4.98999C90.8041 4.88782 90.7101 4.78564 90.6133 4.68038C89.7161 3.6968 89.7161 3.6968 89.7302 2.873C89.8439 2.2994 90.26 1.94908 90.6452 1.55266C90.7512 1.43773 90.8573 1.3228 90.9666 1.20438C92.1985 -0.121934 92.1985 -0.121934 93.2205 0.129206Z" fill="var(--fill-0, #5C5C5C)"/>
<path id="Vector_9" d="M96.2927 44.4186C96.6227 44.4134 96.9527 44.4083 97.2928 44.403C97.3948 44.4007 97.4968 44.3985 97.6019 44.3961C98.2896 44.391 98.9812 44.4347 99.5871 44.8155C99.7786 45.1829 99.7393 45.5035 99.7048 45.913C99.5883 46.0979 99.5883 46.0979 99.4695 46.2866C99.5253 46.3354 99.5811 46.3842 99.6386 46.4345C99.8733 46.7226 99.9146 46.9047 99.9401 47.2829C99.8521 47.647 99.7904 47.8408 99.4989 48.0612C98.7975 48.3087 98.0962 48.2944 97.3663 48.2869C97.012 48.2844 96.6577 48.2818 96.2927 48.2792C96.2927 47.0052 96.2927 45.7312 96.2927 44.4186ZM97.2339 45.1658C97.2339 45.4534 97.2339 45.7411 97.2339 46.0375C97.4227 46.0409 97.6114 46.0433 97.8002 46.0453C97.9578 46.0475 97.9578 46.0475 98.1187 46.0497C98.4263 46.0512 98.4263 46.0512 98.7635 45.913C98.7635 45.7075 98.7635 45.502 98.7635 45.2903C98.4524 45.1256 98.2132 45.1537 97.8664 45.158C97.6894 45.1597 97.6894 45.1597 97.5088 45.1614C97.3727 45.1636 97.3727 45.1636 97.2339 45.1658ZM97.2339 46.6602C97.2339 46.9479 97.2339 47.2355 97.2339 47.5319C97.4619 47.5387 97.6899 47.5435 97.9178 47.5475C98.0448 47.5504 98.1717 47.5533 98.3025 47.5563C98.6687 47.5606 98.6687 47.5606 98.9988 47.2829C98.9674 47.0357 98.9674 47.0357 98.8812 46.7847C98.5106 46.654 98.2472 46.6476 97.859 46.6524C97.7421 46.6535 97.6251 46.6547 97.5047 46.6558C97.4153 46.6573 97.326 46.6587 97.2339 46.6602Z" fill="var(--fill-0, #5C5C5C)"/>
<path id="Vector_10" d="M117.981 44.3959C118.126 44.3965 118.126 44.3965 118.274 44.3971C118.374 44.3982 118.474 44.3992 118.577 44.4003C118.678 44.4008 118.78 44.4014 118.885 44.402C119.136 44.4034 119.386 44.4056 119.636 44.408C119.636 44.6939 119.636 44.9799 119.636 45.2745C119.512 45.2701 119.388 45.2658 119.26 45.2614C119.095 45.2579 118.931 45.2545 118.766 45.2512C118.644 45.2466 118.644 45.2466 118.519 45.2418C117.977 45.2337 117.643 45.3046 117.214 45.6458C116.974 46.1369 117.054 46.7419 117.214 47.2549C117.991 47.5195 118.845 47.3705 119.636 47.2549C119.636 47.5 119.636 47.7451 119.636 47.9976C119.096 48.2089 118.64 48.2819 118.062 48.2838C117.92 48.2859 117.777 48.288 117.631 48.2901C117.17 48.2404 116.881 48.1192 116.488 47.8738C116.026 47.2392 115.951 46.6747 116.003 45.8933C116.204 45.2553 116.415 44.8928 116.972 44.5318C117.315 44.4213 117.622 44.3933 117.981 44.3959Z" fill="var(--fill-0, #5C5C5C)"/>
<path id="Vector_11" d="M121.464 45.9644C121.726 45.9589 121.726 45.9589 121.994 45.9532C122.553 46.0008 122.76 46.0965 123.151 46.3886C123.284 46.5853 123.284 46.5853 123.284 47.2739C122.406 47.2739 121.529 47.2739 120.624 47.2739C120.837 47.5801 120.837 47.5801 121.141 47.6193C121.239 47.6251 121.337 47.6308 121.439 47.6366C121.545 47.643 121.65 47.6493 121.759 47.6558C122.224 47.6722 122.685 47.6736 123.151 47.6674C123.151 47.8297 123.151 47.992 123.151 48.1592C122.615 48.2524 122.105 48.2769 121.555 48.2822C121.396 48.2847 121.237 48.2872 121.073 48.2899C120.585 48.2548 120.346 48.1811 119.96 47.9625C119.565 47.5249 119.608 47.0987 119.694 46.5853C120.167 46.0021 120.599 45.9735 121.464 45.9644ZM120.624 46.7821C121.195 46.7821 121.765 46.7821 122.353 46.7821C121.904 46.3772 121.904 46.3772 121.489 46.3394C121.073 46.3772 121.073 46.3772 120.624 46.7821Z" fill="var(--fill-0, #5C5C5C)"/>
<path id="Vector_12" d="M111.997 45.9556C112.125 45.9544 112.125 45.9544 112.256 45.9532C112.706 45.9546 113.068 45.9576 113.439 46.1777C113.728 46.5332 113.807 46.8429 113.8 47.2634C113.663 47.6454 113.565 47.8755 113.177 48.1198C112.763 48.2796 112.461 48.29 112.005 48.2875C111.862 48.2883 111.72 48.2891 111.573 48.2899C111.112 48.2464 110.824 48.1603 110.435 47.9544C110.099 47.5655 110.129 47.1297 110.194 46.6712C110.339 46.3914 110.445 46.24 110.748 46.0678C111.161 45.9421 111.563 45.9517 111.997 45.9556ZM111.223 46.6403C110.999 46.913 110.965 47.0396 111.036 47.3622C111.242 47.6414 111.412 47.6617 111.802 47.7446C112.231 47.778 112.231 47.778 112.591 47.6583C112.88 47.4669 112.88 47.4669 112.906 47.1154C112.875 46.7749 112.875 46.7749 112.651 46.5787C112.13 46.3923 111.698 46.3708 111.223 46.6403Z" fill="var(--fill-0, #5C5C5C)"/>
<path id="Vector_13" d="M132.413 45.9979C132.727 45.9846 133.041 45.9749 133.355 45.9673C133.444 45.9631 133.533 45.959 133.624 45.9548C134.076 45.9465 134.307 45.9646 134.697 46.1882C134.987 46.6033 134.969 46.9234 134.941 47.4033C134.939 47.4854 134.936 47.5675 134.934 47.6521C134.928 47.8536 134.918 48.055 134.907 48.2564C134.519 48.265 134.13 48.2702 133.742 48.2748C133.632 48.2773 133.521 48.2798 133.408 48.2823C133.302 48.2833 133.195 48.2842 133.086 48.2852C132.988 48.2867 132.891 48.2883 132.79 48.2899C132.469 48.2498 132.322 48.1612 132.088 47.9618C132.034 47.7716 132.034 47.7716 132.041 47.5691C132.041 47.5022 132.041 47.4354 132.041 47.3665C132.103 47.1173 132.186 47.032 132.413 46.8817C132.989 46.7562 133.573 46.7583 134.148 46.8817C133.941 46.6287 133.834 46.5887 133.483 46.5369C133.292 46.5283 133.292 46.5283 133.098 46.5196C132.97 46.5131 132.842 46.5067 132.71 46.5C132.612 46.4964 132.514 46.4927 132.413 46.4889C132.413 46.3269 132.413 46.1649 132.413 45.9979ZM132.739 47.5691C132.948 47.802 132.948 47.802 133.321 47.7839C133.622 47.7698 133.865 47.7494 134.148 47.6672C134.148 47.5376 134.148 47.408 134.148 47.2745C133.975 47.2665 133.801 47.2608 133.626 47.2561C133.53 47.2526 133.433 47.2492 133.333 47.2457C133.019 47.2793 132.931 47.3485 132.739 47.5691Z" fill="var(--fill-0, #5C5C5C)"/>
<path id="Vector_14" d="M100.413 45.9979C100.805 45.9846 101.197 45.9749 101.589 45.9673C101.7 45.9631 101.81 45.959 101.924 45.9548C102.489 45.9465 102.778 45.9646 103.265 46.1882C103.627 46.6033 103.604 46.9234 103.57 47.4033C103.567 47.4854 103.564 47.5675 103.56 47.6521C103.553 47.8536 103.54 48.055 103.527 48.2564C103.042 48.265 102.557 48.2702 102.072 48.2748C101.934 48.2773 101.796 48.2798 101.655 48.2823C101.522 48.2833 101.389 48.2842 101.253 48.2852C101.131 48.2867 101.009 48.2883 100.883 48.2899C100.482 48.2498 100.299 48.1611 100.006 47.9618C99.905 47.6937 99.9321 47.4478 100.006 47.1763C100.246 46.9423 100.44 46.898 100.827 46.8399C101.438 46.7778 101.973 46.7802 102.579 46.8817C102.32 46.6287 102.186 46.5887 101.748 46.5369C101.51 46.5283 101.51 46.5283 101.268 46.5196C101.108 46.5131 100.948 46.5067 100.783 46.5C100.661 46.4964 100.539 46.4927 100.413 46.4889C100.413 46.3269 100.413 46.1649 100.413 45.9979ZM100.819 47.5691C101.08 47.802 101.08 47.802 101.547 47.7839C101.922 47.7698 102.225 47.7494 102.579 47.6672C102.579 47.5376 102.579 47.408 102.579 47.2745C102.362 47.2665 102.145 47.2608 101.928 47.2561C101.807 47.2526 101.686 47.2492 101.561 47.2457C101.169 47.2793 101.059 47.3485 100.819 47.5691Z" fill="var(--fill-0, #5C5C5C)"/>
<path id="Vector_15" d="M123.299 45.9873C123.783 45.9786 124.268 45.9733 124.753 45.9686C124.89 45.9661 125.028 45.9635 125.17 45.9609C125.302 45.96 125.435 45.959 125.571 45.958C125.693 45.9564 125.815 45.9549 125.94 45.9532C126.334 45.9938 126.506 46.0749 126.789 46.2877C126.906 46.5587 126.934 46.7119 126.931 46.9896C126.931 47.0654 126.93 47.1412 126.93 47.2194C126.929 47.298 126.928 47.3767 126.927 47.4577C126.926 47.5375 126.925 47.6173 126.925 47.6996C126.923 47.8963 126.921 48.0931 126.918 48.2899C126.62 48.2899 126.321 48.2899 126.013 48.2899C126.009 48.1838 126.004 48.0777 125.999 47.9684C125.99 47.8295 125.982 47.6905 125.973 47.5516C125.97 47.4816 125.967 47.4117 125.964 47.3396C125.953 47.1113 125.953 47.1113 125.884 46.7882C125.451 46.5644 125.379 46.5707 124.89 46.6255C124.614 46.6565 124.614 46.6565 124.333 46.6881C124.29 47.2167 124.247 47.7453 124.203 48.2899C123.948 48.2899 123.692 48.2899 123.428 48.2899C123.299 48.1897 123.299 48.1897 123.284 47.9762C123.285 47.8845 123.285 47.7927 123.286 47.6982C123.286 47.5992 123.287 47.5001 123.287 47.3981C123.288 47.2939 123.289 47.1897 123.29 47.0823C123.291 46.9777 123.292 46.8731 123.292 46.7653C123.294 46.506 123.296 46.2467 123.299 45.9873Z" fill="var(--fill-0, #5C5C5C)"/>
<path id="Vector_16" d="M103.588 45.9985C104.328 45.9862 104.328 45.9862 105.084 45.9736C105.239 45.97 105.394 45.9663 105.553 45.9626C105.676 45.9616 105.799 45.9606 105.926 45.9596C106.114 45.9564 106.114 45.9564 106.306 45.9532C106.755 46.0129 106.908 46.1253 107.179 46.397C107.239 46.616 107.239 46.616 107.231 46.85C107.228 46.9761 107.228 46.9761 107.226 47.1049C107.221 47.1918 107.217 47.2788 107.212 47.3683C107.21 47.4568 107.208 47.5453 107.205 47.6365C107.199 47.8544 107.19 48.0721 107.179 48.2899C106.872 48.2899 106.565 48.2899 106.248 48.2899C106.204 47.731 106.16 47.1721 106.115 46.5962C105.391 46.6456 105.391 46.6456 104.652 46.6959C104.608 47.2219 104.564 47.7479 104.519 48.2899C104.211 48.2899 103.904 48.2899 103.588 48.2899C103.588 47.5337 103.588 46.7776 103.588 45.9985Z" fill="var(--fill-0, #5C5C5C)"/>
<path id="Vector_17" d="M68.5721 45.9532C68.7406 45.9532 68.9091 45.9532 69.0827 45.9532C69.2109 46.1859 69.3385 46.4187 69.4657 46.6517C69.5022 46.7178 69.5388 46.784 69.5764 46.8521C69.8487 47.3525 69.8487 47.3525 69.8487 47.5787C69.9329 47.5787 70.0172 47.5787 70.104 47.5787C70.1272 47.521 70.1504 47.4632 70.1743 47.4037C70.3773 46.9075 70.6025 46.4297 70.87 45.9532C71.0385 45.9532 71.207 45.9532 71.3806 45.9532C71.823 46.7076 71.823 46.7076 72.2742 47.4771C72.53 47.1718 72.6906 46.8828 72.8647 46.5437C72.9501 46.3782 72.9501 46.3782 73.0372 46.2092C73.0803 46.1247 73.1234 46.0403 73.1679 45.9532C73.3364 45.9532 73.5049 45.9532 73.6785 45.9532C73.4119 46.7778 72.9951 47.5249 72.5296 48.2899C72.2896 48.2605 72.2896 48.2605 72.0189 48.1883C71.8339 47.9294 71.6854 47.6919 71.5402 47.42C71.4033 47.1706 71.2664 46.9213 71.1253 46.6644C70.7883 47.2008 70.4512 47.7372 70.104 48.2899C69.9776 48.2899 69.8512 48.2899 69.721 48.2899C69.5288 47.9388 69.3376 47.5873 69.1465 47.2358C69.0917 47.1358 69.0369 47.0357 68.9805 46.9327C68.9287 46.8371 68.8768 46.7415 68.8234 46.643C68.7753 46.5546 68.7271 46.4663 68.6775 46.3753C68.5721 46.1564 68.5721 46.1564 68.5721 45.9532Z" fill="var(--fill-0, #5C5C5C)"/>
<path id="Vector_18" d="M127.477 45.1745C127.694 45.1745 127.91 45.1745 128.133 45.1745C128.133 45.3849 128.133 45.5954 128.133 45.8122C128.457 45.8122 128.782 45.8122 129.116 45.8122C129.116 46.0226 129.116 46.2331 129.116 46.4499C128.792 46.4499 128.467 46.4499 128.133 46.4499C128.169 46.8357 128.205 47.2215 128.242 47.619C128.531 47.619 128.819 47.619 129.116 47.619C129.121 47.7961 129.121 47.9733 129.116 48.1504C128.936 48.3257 128.729 48.2832 128.481 48.2899C127.956 48.2855 127.956 48.2855 127.635 48.064C127.382 47.69 127.356 47.3979 127.361 46.9614C127.362 46.8656 127.363 46.7698 127.364 46.6712C127.366 46.5981 127.367 46.5251 127.368 46.4499C127.224 46.4499 127.08 46.4499 126.931 46.4499C126.931 46.2394 126.931 46.029 126.931 45.8122C127.075 45.7771 127.22 45.742 127.368 45.7059C127.404 45.5305 127.44 45.3552 127.477 45.1745Z" fill="var(--fill-0, #5C5C5C)"/>
<path id="Vector_19" d="M84.9054 44.3958C85.0522 44.3958 85.199 44.3958 85.3503 44.3958C85.3503 45.6603 85.3503 46.9248 85.3503 48.2276C85.2035 48.1881 85.0567 48.1486 84.9054 48.1079C84.7562 48.1436 84.6079 48.1841 84.4605 48.2276C83.2974 48.3327 83.2974 48.3327 82.7712 48.0106C82.4245 47.5601 82.4273 47.1376 82.434 46.5778C82.4677 46.2094 82.5706 45.9939 82.792 45.713C83.1998 45.4101 83.623 45.4459 84.099 45.4585C84.1765 45.4596 84.2541 45.4607 84.334 45.4618C84.5245 45.4646 84.7149 45.4689 84.9054 45.4735C84.9054 45.1178 84.9054 44.7622 84.9054 44.3958ZM83.1049 46.0048C82.8485 46.395 82.8217 46.6627 82.852 47.134C82.8932 47.4147 82.8932 47.4147 83.0979 47.7037C83.6591 47.9593 84.203 47.8628 84.7942 47.7486C84.946 47.6125 84.946 47.6125 84.9162 47.2505C84.915 47.0963 84.9137 46.9421 84.9123 46.7832C84.9113 46.6287 84.9103 46.4741 84.9093 46.315C84.908 46.1953 84.9067 46.0757 84.9054 45.9524C84.3661 45.6621 83.6375 45.7462 83.1049 46.0048Z" fill="var(--fill-0, #5C5C5C)"/>
<path id="Vector_20" d="M87.5388 44.3958C87.7223 44.3958 87.9057 44.3958 88.0948 44.3958C88.0948 44.794 88.0948 45.1923 88.0948 45.6027C88.1865 45.5628 88.2782 45.523 88.3728 45.482C88.6878 45.4608 89.0037 45.4497 89.3196 45.4443C89.4897 45.4398 89.6597 45.4352 89.8349 45.4306C90.4006 45.4907 90.6196 45.6138 91.0136 45.9647C91.2364 46.5451 91.2599 47.0716 90.9875 47.6318C90.6367 47.9995 90.3131 48.2309 89.7497 48.2867C89.414 48.2935 89.082 48.2894 88.7463 48.2805C88.3478 48.2731 87.9493 48.2656 87.5388 48.2579C87.5388 46.9834 87.5388 45.7089 87.5388 44.3958ZM88.0948 45.9647C88.0948 46.5622 88.0948 47.1596 88.0948 47.7751C88.8436 47.9377 89.4686 48.0153 90.171 47.7299C90.4711 47.5531 90.4711 47.5531 90.5966 47.2924C90.6679 46.6261 90.6679 46.6261 90.3968 46.0251C89.6744 45.6579 88.8822 45.828 88.0948 45.9647Z" fill="var(--fill-0, #5C5C5C)"/>
<path id="Vector_21" d="M109.047 45.9552C109.141 45.9557 109.235 45.9561 109.332 45.9566C109.564 45.9577 109.796 45.9595 110.028 45.9614C110.028 46.1254 110.028 46.2894 110.028 46.4584C109.934 46.4633 109.839 46.4681 109.742 46.4732C109.556 46.4843 109.556 46.4843 109.367 46.4957C109.182 46.5061 109.182 46.5061 108.994 46.5166C108.631 46.5418 108.631 46.5418 108.284 46.7566C108.243 47.1086 108.243 47.1086 108.284 47.4524C108.426 47.5881 108.426 47.5881 108.803 47.5615C108.963 47.5603 109.123 47.5592 109.289 47.558C109.449 47.5571 109.61 47.5562 109.776 47.5553C109.9 47.5541 110.025 47.553 110.153 47.5518C110.153 47.7486 110.153 47.9454 110.153 48.1481C109.718 48.2525 109.306 48.2707 108.853 48.2786C108.714 48.2823 108.575 48.286 108.433 48.2899C107.952 48.2387 107.755 48.1174 107.412 47.85C107.167 47.4588 107.23 46.9842 107.288 46.5578C107.758 45.9321 108.195 45.9476 109.047 45.9552Z" fill="var(--fill-0, #5C5C5C)"/>
<path id="Vector_22" d="M62.0067 46.0128C62.5586 45.993 62.5586 45.993 63.1217 45.9728C63.2942 45.9641 63.2942 45.9641 63.4702 45.9552C63.9673 45.9466 64.2289 45.9519 64.6484 46.2869C64.9899 46.8982 64.9581 47.4822 64.8523 48.1858C64.5758 48.631 64.4192 48.7805 63.9767 48.9528C63.7557 48.9648 63.5344 48.9694 63.3132 48.9688C63.1968 48.9691 63.0804 48.9694 62.9605 48.9698C62.6633 48.9528 62.6633 48.9528 62.4444 48.825C62.4444 49.1624 62.4444 49.4999 62.4444 49.8476C62.3 49.8476 62.1555 49.8476 62.0067 49.8476C62.0067 48.5821 62.0067 47.3166 62.0067 46.0128ZM62.4444 46.5241C62.4444 47.1568 62.4444 47.7896 62.4444 48.4415C63.0262 48.6113 63.5203 48.6899 64.0725 48.4095C64.3275 48.1643 64.4356 48.0459 64.524 47.6745C64.5101 47.2132 64.4956 46.9021 64.2503 46.5321C63.6632 46.2406 63.053 46.3819 62.4444 46.5241Z" fill="var(--fill-0, #5C5C5C)"/>
<path id="Vector_23" d="M80.6036 45.9617C80.7728 45.9589 80.942 45.9561 81.1163 45.9532C81.6952 46.0078 81.9135 46.0785 82.2931 46.3914C82.339 46.6507 82.385 46.91 82.4324 47.1772C81.4208 47.1772 80.4092 47.1772 79.367 47.1772C79.5659 47.6453 79.5659 47.6453 79.8743 47.7964C80.3432 47.8939 80.7992 47.8854 81.2829 47.877C81.4286 47.8757 81.4286 47.8757 81.5773 47.8743C81.8159 47.872 82.0545 47.8685 82.2931 47.8647C82.2931 47.962 82.2931 48.0592 82.2931 48.1594C81.7848 48.2702 81.299 48.2774 80.7691 48.2822C80.6011 48.2847 80.4332 48.2872 80.2602 48.2899C79.7486 48.2552 79.4942 48.1802 79.0883 47.963C78.7688 47.5768 78.7549 47.2246 78.8096 46.7843C79.1944 46.0998 79.5821 45.9693 80.6036 45.9617ZM79.5586 46.4774C79.3418 46.6721 79.3418 46.6721 79.367 46.8825C80.1946 46.8825 81.0223 46.8825 81.8751 46.8825C81.6889 46.3968 81.6889 46.3968 81.3177 46.2932C80.3848 46.2222 80.3848 46.2222 79.5586 46.4774Z" fill="var(--fill-0, #5C5C5C)"/>
<path id="Vector_24" d="M76.0227 46.0059C76.41 46.2078 76.41 46.2078 76.5964 46.4954C76.5964 46.7216 76.5964 46.9478 76.5964 47.1808C75.4037 47.2292 75.4037 47.2292 74.1869 47.2787C74.2248 47.4402 74.2626 47.6018 74.3016 47.7682C74.7785 47.867 75.2246 47.8761 75.7144 47.8722C75.8583 47.8713 76.0022 47.8705 76.1505 47.8696C76.2598 47.8684 76.3691 47.8673 76.4817 47.8661C76.4817 47.963 76.4817 48.06 76.4817 48.1598C76.0805 48.2636 75.7022 48.2773 75.2841 48.2822C75.0926 48.286 75.0926 48.286 74.8973 48.2899C74.4889 48.254 74.2829 48.1737 73.9574 47.964C73.6171 47.5285 73.6544 47.1043 73.7279 46.5933C74.261 45.8352 75.0717 45.9243 76.0227 46.0059ZM74.1869 46.5933C74.1869 46.6903 74.1869 46.7872 74.1869 46.8871C74.8684 46.8871 75.55 46.8871 76.2522 46.8871C75.9857 46.4088 75.9857 46.4088 75.6785 46.2996C74.85 46.2259 74.85 46.2259 74.1869 46.5933Z" fill="var(--fill-0, #5C5C5C)"/>
<path id="Vector_25" d="M68.0159 46.091C68.2269 46.1921 68.2269 46.1921 68.4965 46.5037C68.5953 46.9012 68.5992 47.2569 68.4965 47.6541C68.2068 47.9392 68.0076 48.073 67.5813 48.2293C65.9692 48.3289 65.9692 48.3289 65.3913 48.0496C65.0671 47.825 64.9783 47.7431 64.9353 47.4216C64.9089 46.6699 64.9089 46.6699 65.2116 46.3C65.9039 45.8521 67.1585 45.903 68.0159 46.091ZM65.4894 46.5996C65.3484 46.9718 65.3074 47.1816 65.5139 47.5403C65.772 47.7686 65.888 47.8576 66.2739 47.9417C66.8219 47.9736 67.1861 47.9751 67.7039 47.8458C68.0498 47.5999 68.0914 47.4252 68.1227 47.0793C68.0952 46.7923 67.9632 46.6248 67.7121 46.4078C67.3343 46.3155 67.0685 46.2932 66.6743 46.288C66.5625 46.2855 66.4508 46.2831 66.3357 46.2805C65.9429 46.3187 65.7717 46.3982 65.4894 46.5996Z" fill="var(--fill-0, #5C5C5C)"/>
<path id="Vector_26" d="M91.1863 45.9532C91.3403 45.9532 91.4944 45.9532 91.6531 45.9532C91.8093 46.2591 91.9649 46.5653 92.12 46.8718C92.1645 46.9588 92.2091 47.0458 92.255 47.1355C92.5869 47.7933 92.5869 47.7933 92.5869 48.0706C92.6639 48.0706 92.7409 48.0706 92.8203 48.0706C92.8402 48.0013 92.86 47.9319 92.8805 47.8604C93.081 47.1868 93.3284 46.5784 93.6373 45.9532C93.7914 45.9532 93.9455 45.9532 94.1042 45.9532C93.9921 46.688 93.6838 47.293 93.3747 47.9538C93.3189 48.0775 93.2631 48.2013 93.2056 48.3287C92.6628 49.4942 92.6628 49.4942 92.12 49.8143C91.7932 49.8752 91.5213 49.8386 91.1863 49.8143C91.1863 49.691 91.1863 49.5677 91.1863 49.4407C91.4218 49.392 91.6574 49.3434 91.8929 49.2947C92.1348 49.2099 92.1348 49.2099 92.2654 48.9726C92.3815 48.6938 92.3815 48.6938 92.2728 48.4121C92.2227 48.3119 92.1726 48.2118 92.1209 48.1086C92.0408 47.9441 92.0408 47.9441 91.9591 47.7763C91.9014 47.6627 91.8438 47.5492 91.7844 47.4323C91.6725 47.2064 91.561 46.9804 91.4498 46.7541C91.3994 46.6542 91.349 46.5543 91.2971 46.4514C91.1863 46.2023 91.1863 46.2023 91.1863 45.9532Z" fill="var(--fill-0, #5C5C5C)"/>
<path id="Vector_27" d="M135.685 44.3958C135.926 44.3958 136.167 44.3958 136.415 44.3958C136.415 45.6809 136.415 46.966 136.415 48.2901C136.174 48.2901 135.933 48.2901 135.685 48.2901C135.685 47.005 135.685 45.7198 135.685 44.3958Z" fill="var(--fill-0, #5C5C5C)"/>
<path id="Vector_28" d="M129.849 45.9532C130.571 45.9532 131.294 45.9532 132.038 45.9532C132.038 46.1544 132.038 46.3556 132.038 46.5628C131.613 46.5628 131.188 46.5628 130.75 46.5628C130.75 47.1327 130.75 47.7027 130.75 48.2899C130.453 48.2899 130.156 48.2899 129.849 48.2899C129.849 47.5188 129.849 46.7477 129.849 45.9532Z" fill="var(--fill-0, #5C5C5C)"/>
<path id="Vector_29" d="M77.3259 45.9532C77.8074 45.9532 78.2889 45.9532 78.7849 45.9532C78.7849 46.0538 78.7849 46.1544 78.7849 46.258C78.4066 46.2915 78.0283 46.3251 77.6386 46.3596C77.6386 46.9966 77.6386 47.6336 77.6386 48.2899C77.5354 48.2899 77.4322 48.2899 77.3259 48.2899C77.3259 47.5188 77.3259 46.7477 77.3259 45.9532Z" fill="var(--fill-0, #5C5C5C)"/>
</g>
</svg>
