<svg width="512" height="512" viewBox="0 0 512 512" fill="none" xmlns="http://www.w3.org/2000/svg">
<circle cx="256" cy="256" r="256" fill="url(#paint0_linear_2198_12)"/>
<path d="M177.898 307.373L189.682 240.771L139.824 307.373H110.023L83.887 240.771L72.1027 307.373H45.9666L66.3532 191.395H94.3985L129.598 280.93L196.2 191.395H224.399L204.012 307.373H177.876H177.898Z" fill="white"/>
<path d="M262.956 191.395L247.024 281.259H330.831L326.2 307.395H216.433L236.819 191.571L262.956 191.417V191.395Z" fill="white"/>
<path d="M460.677 245.401C460.041 249.11 458.746 252.599 456.771 255.847C454.796 259.095 452.404 261.925 449.595 264.361C446.786 266.797 443.626 268.728 440.115 270.089C436.604 271.471 433.005 272.152 429.274 272.152H369.541L363.33 307.351H337.194L357.581 191.527H443.604C447.203 191.527 450.539 192.229 453.567 193.59C456.595 194.972 459.097 196.881 461.05 199.317C463.025 201.753 464.43 204.606 465.264 207.832C466.119 211.08 466.229 214.503 465.593 218.102L460.655 245.335L460.677 245.401ZM373.996 246.037H433.905C434.234 246.037 434.497 245.818 434.695 245.401L439.479 218.168C439.479 217.839 439.325 217.685 438.996 217.685H379.087L373.996 246.037Z" fill="white"/>
<path d="M333.244 193.217C333.178 192.514 332.783 192.295 331.993 192.295C331.203 192.295 330.896 192.514 330.501 192.909L266.269 256.11C264.711 257.58 263.811 259.599 264.316 261.903C264.974 264.756 268.244 266.336 270.965 266.051C271.997 265.985 272.984 265.634 273.884 265.129C274.784 264.625 275.31 264.142 275.881 263.483L332.783 194.709C333.135 194.292 333.31 193.765 333.266 193.239L333.244 193.217Z" fill="#FFEF81"/>
<defs>
<linearGradient id="paint0_linear_2198_12" x1="256" y1="0" x2="256" y2="512" gradientUnits="userSpaceOnUse">
<stop stop-color="#161616"/>
<stop offset="1" stop-color="#403B18"/>
</linearGradient>
</defs>
</svg>
