<svg preserveAspectRatio="none" width="100%" height="100%" overflow="visible" style="display: block;" viewBox="0 0 118.907 34.774" fill="none" xmlns="http://www.w3.org/2000/svg">
<g id="AMERICAN EXPRESS">
<path id="Vector" d="M18.0297 0.118774C20.024 0.118774 22.0184 0.118774 24.0731 0.118774C24.2705 0.704343 24.4679 1.28991 24.6712 1.89322C25.0631 3.05436 25.4577 4.21401 25.8673 5.36819C26.2992 6.58539 26.7006 7.81322 27.0949 9.0448C27.3103 8.81481 27.3504 8.70268 27.4391 8.39912C27.481 8.25947 27.481 8.25947 27.5238 8.11701C27.5547 8.01283 27.5856 7.90866 27.6174 7.80134C28.0078 6.51793 28.4355 5.25052 28.8701 3.98358C28.9023 3.88956 28.9344 3.79555 28.9676 3.69868C30.12 0.330214 30.12 0.330214 30.3181 0.118774C32.3124 0.118774 34.3067 0.118774 36.3615 0.118774C36.3615 5.12272 36.3615 10.1267 36.3615 15.2823C35.0652 15.2823 33.7689 15.2823 32.4333 15.2823C32.4 12.0173 32.3668 8.75228 32.3325 5.38835C31.9337 6.55949 31.5348 7.73063 31.1238 8.93725C30.843 9.75742 30.5621 10.5776 30.2802 11.3973C30.1639 11.7356 30.0478 12.074 29.9317 12.4124C29.8559 12.6329 29.7801 12.8534 29.7043 13.0739C29.6705 13.1724 29.6367 13.271 29.6019 13.3726C29.5695 13.4666 29.5371 13.5605 29.5038 13.6573C29.4761 13.7379 29.4485 13.8184 29.42 13.9013C29.2547 14.3639 29.0801 14.8226 28.9079 15.2823C27.7445 15.2823 26.5812 15.2823 25.3826 15.2823C24.8293 13.7797 24.3024 12.2684 23.7836 10.752C23.6684 10.4157 23.5531 10.0794 23.4378 9.74309C23.3669 9.53647 23.2962 9.32982 23.2255 9.12311C22.8101 7.91114 22.3824 6.70444 21.9579 5.4959C21.9247 8.72539 21.8915 11.9549 21.8572 15.2823C20.5941 15.2823 19.3311 15.2823 18.0297 15.2823C18.0297 10.2783 18.0297 5.27436 18.0297 0.118774Z" fill="var(--fill-0, #6B6B6B)"/>
<path id="Vector_2" d="M102.235 0.118473C103.864 0.118473 105.493 0.118473 107.171 0.118473C108.203 1.22102 108.203 1.22102 108.539 2.1393C108.792 2.75252 109.174 3.27053 109.544 3.80852C109.675 4.00707 109.805 4.20603 109.935 4.40547C109.995 4.49843 110.056 4.5914 110.118 4.68719C110.831 5.79049 110.831 5.79049 111.098 6.303C111.341 6.76955 111.633 7.19883 111.924 7.633C111.979 7.7159 112.034 7.7988 112.09 7.88421C112.331 8.26546 112.331 8.26546 112.61 8.61432C112.611 8.50947 112.612 8.40462 112.613 8.29659C112.623 7.31066 112.633 6.32472 112.644 5.3388C112.649 4.83187 112.655 4.32494 112.66 3.818C112.665 3.32919 112.67 2.8404 112.675 2.3516C112.678 2.16469 112.679 1.97778 112.681 1.79087C112.684 1.52998 112.687 1.26912 112.69 1.00825C112.69 0.930195 112.691 0.852145 112.692 0.771729C112.699 0.238281 112.699 0.238281 112.811 0.118473C113.094 0.108943 113.375 0.106082 113.658 0.107971C113.743 0.108123 113.828 0.108275 113.915 0.108432C114.187 0.109036 114.459 0.110386 114.731 0.111752C114.915 0.112291 115.099 0.112782 115.283 0.113222C115.735 0.114411 116.187 0.116268 116.639 0.118473C116.771 0.400013 116.752 0.606716 116.752 0.922116C116.752 1.04713 116.753 1.17214 116.753 1.30094C116.753 1.50769 116.753 1.50769 116.752 1.71861C116.753 1.86468 116.753 2.01075 116.753 2.15683C116.753 2.55409 116.753 2.95136 116.753 3.34862C116.753 3.76366 116.753 4.17869 116.753 4.59373C116.753 5.29068 116.753 5.98762 116.753 6.68457C116.752 7.49143 116.752 8.29828 116.753 9.10513C116.753 9.79688 116.753 10.4886 116.753 11.1804C116.753 11.594 116.753 12.0076 116.753 12.4211C116.753 12.8098 116.753 13.1984 116.753 13.5871C116.752 13.7986 116.753 14.0101 116.753 14.2216C116.753 14.3463 116.752 14.471 116.752 14.5995C116.752 14.7631 116.752 14.7631 116.752 14.93C116.739 15.1744 116.739 15.1744 116.639 15.282C115.989 15.3709 115.324 15.3711 114.669 15.3905C114.448 15.3987 114.226 15.4104 114.005 15.4258C112.219 15.5471 112.219 15.5471 111.699 15.1081C111.348 14.6787 111.117 14.1993 110.899 13.6823C110.742 13.3325 110.538 13.0349 110.325 12.7211C109.902 12.0755 109.492 11.4217 109.084 10.7652C108.883 10.4424 108.682 10.1199 108.48 9.79729C108.384 9.64354 108.288 9.48979 108.192 9.33603C108.144 9.25909 108.096 9.18216 108.046 9.10289C107.452 8.15139 106.858 7.19989 106.264 6.24839C106.231 9.22947 106.198 12.2105 106.163 15.282C104.867 15.282 103.571 15.282 102.235 15.282C102.235 10.278 102.235 5.27406 102.235 0.118473Z" fill="var(--fill-0, #6B6B6B)"/>
<path id="Vector_3" d="M54.0172 0.102848C54.0936 0.102897 54.17 0.102946 54.2487 0.102996C54.3689 0.102454 54.3689 0.102454 54.4915 0.101902C54.7583 0.100874 55.0252 0.100669 55.2921 0.100554C55.478 0.100209 55.6639 0.0998469 55.8499 0.0994696C56.2413 0.0988238 56.6326 0.0986266 57.024 0.0986902C57.5217 0.098701 58.0194 0.0972433 58.5171 0.0953809C58.9021 0.0941742 59.2872 0.0939673 59.6723 0.0940239C59.8555 0.0938982 60.0386 0.0934294 60.2218 0.0925901C62.1492 0.0845982 64.1983 0.0951422 65.6722 1.62421C66.6501 2.74795 66.8298 4.04949 66.8077 5.51968C66.7676 6.60549 66.3005 7.55572 65.6722 8.39938C65.5226 8.45262 65.5226 8.45262 65.37 8.50693C65.3202 8.66663 65.3202 8.66663 65.2693 8.82955C64.6929 9.29845 64.05 9.59326 63.3555 9.79743C63.5091 10.1907 63.7289 10.4266 64.0165 10.7183C64.4688 11.19 64.866 11.687 65.2602 12.2138C65.4939 12.516 65.7437 12.7876 66.0074 13.0594C66.1867 13.2504 66.351 13.4502 66.5158 13.6555C66.8597 14.0838 67.2326 14.4744 67.6139 14.8645C67.7874 15.067 67.7874 15.067 67.7874 15.2821C67.123 15.3206 66.4589 15.3468 65.7937 15.3648C65.568 15.3723 65.3425 15.3826 65.117 15.3957C63.1448 15.5075 63.1448 15.5075 62.5255 14.9667C62.239 14.6631 62.0008 14.3337 61.7748 13.9773C61.5529 13.6386 61.2946 13.3335 61.0389 13.0237C60.9732 12.9423 60.9075 12.861 60.8398 12.7771C60.785 12.7099 60.7302 12.6426 60.6737 12.5734C60.6184 12.5053 60.5631 12.4372 60.5061 12.3671C60.3881 12.2276 60.266 12.092 60.1406 11.96C59.8976 11.6972 59.6786 11.4201 59.4588 11.135C59.3398 10.9817 59.3398 10.9817 59.2184 10.8254C59.0244 10.5502 59.0244 10.5502 58.9237 10.2276C58.4251 10.1921 57.9265 10.1566 57.4128 10.1201C57.4128 11.859 57.4128 13.598 57.4128 15.3896C56.1165 15.3896 54.8202 15.3896 53.4846 15.3896C53.4062 14.9714 53.3712 14.651 53.371 14.2327C53.3708 14.1091 53.3705 13.9854 53.3702 13.8581C53.3704 13.7234 53.3706 13.5887 53.3708 13.45C53.3707 13.306 53.3705 13.162 53.3703 13.018C53.3698 12.6279 53.37 12.2377 53.3703 11.8476C53.3706 11.4394 53.3703 11.0313 53.3702 10.6231C53.37 9.93826 53.3702 9.25336 53.3707 8.56847C53.3713 7.77572 53.3711 6.98297 53.3705 6.19022C53.3701 5.50989 53.37 4.82956 53.3703 4.14922C53.3704 3.74272 53.3704 3.33623 53.3701 2.92973C53.3698 2.4773 53.3702 2.02487 53.3708 1.57244C53.3706 1.43691 53.3704 1.30138 53.3702 1.16174C53.3705 1.0393 53.3708 0.91687 53.371 0.790725C53.3711 0.683667 53.3711 0.576609 53.3712 0.466307C53.3956 0.00300062 53.641 0.105344 54.0172 0.102848ZM57.4128 3.66752C57.4128 4.59023 57.4128 5.51295 57.4128 6.46362C58.033 6.47351 58.6529 6.48207 59.2731 6.48725C59.4839 6.48941 59.6948 6.49234 59.9056 6.49607C60.2091 6.50131 60.5126 6.50373 60.8162 6.50563C60.9569 6.50896 60.9569 6.50896 61.1005 6.51236C61.6703 6.51257 61.999 6.44385 62.449 6.03345C62.6785 5.75703 62.8365 5.55314 62.8716 5.17815C62.8361 4.59451 62.6342 4.28579 62.2476 3.8826C61.9522 3.69045 61.736 3.64099 61.3921 3.6431C61.3034 3.64312 61.2147 3.64313 61.1233 3.64315C61.0285 3.64426 60.9336 3.64537 60.8359 3.64651C60.7381 3.64682 60.6403 3.64712 60.5395 3.64744C60.2275 3.64864 59.9155 3.65134 59.6036 3.65407C59.3919 3.65515 59.1802 3.65614 58.9685 3.65702C58.4499 3.6592 57.9314 3.66341 57.4128 3.66752Z" fill="var(--fill-0, #6B6B6B)"/>
<path id="Vector_4" d="M63.1542 19.4759C65.4601 19.4659 65.4601 19.4659 67.8127 19.4557C68.296 19.4528 68.7793 19.4499 69.2772 19.4468C69.8728 19.4454 69.8728 19.4454 70.1526 19.4451C70.3458 19.4446 70.5389 19.4435 70.7321 19.4418C72.5055 19.4275 74.0684 19.5408 75.43 20.9008C76.3586 21.9527 76.6357 23.2265 76.6512 24.6379C76.5808 25.9875 76.0665 27.1169 75.1471 28.0432C74.5596 28.521 73.6779 29.1547 72.9244 29.1547C72.999 29.2423 72.999 29.2423 73.0751 29.3316C73.1397 29.4085 73.2042 29.4854 73.2707 29.5647C73.3671 29.6789 73.3671 29.6789 73.4654 29.7953C73.6295 30.015 73.6295 30.015 73.7302 30.3377C73.7967 30.3377 73.8632 30.3377 73.9317 30.3377C74.0631 30.4767 74.0631 30.4767 74.2213 30.6805C74.5518 31.0961 74.8934 31.4979 75.2411 31.897C75.6258 32.34 76.006 32.7857 76.3758 33.243C76.6729 33.606 76.9788 33.9606 77.2835 34.3163C77.457 34.5318 77.457 34.5318 77.457 34.6394C76.7833 34.664 76.1097 34.6809 75.4357 34.6925C75.2066 34.6974 74.9776 34.704 74.7487 34.7124C74.4186 34.7242 74.0888 34.7296 73.7586 34.7339C73.6062 34.7414 73.6062 34.7414 73.4507 34.749C73.0098 34.7494 72.7331 34.736 72.3841 34.4316C72.1792 34.1871 71.9967 33.9369 71.8165 33.6715C71.7086 33.5359 71.5997 33.4013 71.4891 33.2682C71.4325 33.1989 71.3759 33.1296 71.3176 33.0582C71.0512 32.739 70.7792 32.4256 70.5071 32.1121C69.8313 31.3328 69.8313 31.3328 69.5187 30.956C69.4643 30.891 69.4099 30.826 69.3538 30.759C69.1976 30.5528 69.1976 30.5528 69.0446 30.2894C68.8661 29.9756 68.8661 29.9756 68.4926 29.5849C68.0605 29.5494 67.6284 29.5139 67.1832 29.4773C67.1832 31.1808 67.1832 32.8843 67.1832 34.6394C65.8536 34.6394 64.524 34.6394 63.1542 34.6394C63.1542 29.6354 63.1542 24.6315 63.1542 19.4759ZM67.1832 23.0248C67.1832 23.983 67.1832 24.9412 67.1832 25.9284C67.7728 25.9359 68.3622 25.9423 68.9519 25.9462C69.1522 25.9478 69.3526 25.95 69.553 25.9528C69.8417 25.9567 70.1305 25.9585 70.4193 25.9599C70.5082 25.9616 70.5971 25.9633 70.6887 25.965C71.3553 25.9652 71.862 25.8727 72.3579 25.3571C72.6077 24.916 72.6558 24.5981 72.5593 24.0935C72.3535 23.624 72.1062 23.3283 71.6579 23.1185C71.2147 22.9981 70.8057 22.998 70.3505 23.0038C70.2142 23.0042 70.2142 23.0042 70.0753 23.0047C69.7869 23.0059 69.4986 23.0086 69.2102 23.0113C69.014 23.0124 68.8178 23.0134 68.6216 23.0143C68.1421 23.0165 67.6627 23.0207 67.1832 23.0248Z" fill="var(--fill-0, #6B6B6B)"/>
<path id="Vector_5" d="M39.0811 0.118362C41.0567 0.116144 43.0323 0.113926 45.0678 0.11164C45.6927 0.110661 46.3175 0.109682 46.9613 0.108674C47.7217 0.108188 47.7217 0.108188 48.0772 0.108098C48.3265 0.107932 48.5759 0.107553 48.8253 0.107008C49.202 0.106226 49.5788 0.106112 49.9555 0.106153C50.0674 0.105766 50.1794 0.105379 50.2947 0.10498C50.3955 0.105129 50.4962 0.105277 50.6001 0.105429C50.6884 0.10533 50.7767 0.105231 50.8676 0.105129C51.0672 0.118362 51.0672 0.118362 51.168 0.225904C51.1781 0.471045 51.1811 0.71652 51.1813 0.961898C51.1814 1.03549 51.1815 1.10908 51.1816 1.1849C51.1817 1.34076 51.1815 1.49661 51.1811 1.65247C51.1806 1.8918 51.1811 2.13112 51.1817 2.37045C51.1817 2.52154 51.1815 2.67263 51.1813 2.82373C51.1812 2.96215 51.1811 3.10057 51.181 3.24318C51.168 3.55972 51.168 3.55972 51.0672 3.66726C50.8159 3.67748 50.5674 3.68077 50.3161 3.67947C50.2375 3.67949 50.1589 3.6795 50.0779 3.67952C49.8168 3.67944 49.5558 3.6786 49.2947 3.67776C49.1142 3.67756 48.9337 3.67741 48.7532 3.6773C48.2771 3.67689 47.801 3.67583 47.325 3.67465C46.8395 3.67355 46.3541 3.67305 45.8687 3.67251C44.9156 3.67136 43.9624 3.66947 43.0093 3.66726C43.0093 4.37704 43.0093 5.08682 43.0093 5.81811C43.2468 5.81755 43.4842 5.81698 43.7289 5.8164C44.5116 5.81462 45.2944 5.81343 46.0772 5.81254C46.5519 5.81198 47.0267 5.81121 47.5015 5.81C47.9593 5.80883 48.4172 5.80819 48.875 5.80791C49.05 5.80771 49.2251 5.80732 49.4001 5.80674C49.6445 5.80596 49.8888 5.80585 50.1331 5.8059C50.2063 5.80551 50.2794 5.80513 50.3547 5.80473C50.8543 5.80584 50.8543 5.80584 50.9665 5.92565C50.9754 6.18114 50.9781 6.43348 50.9763 6.68895C50.9762 6.76518 50.9761 6.84142 50.9759 6.91996C50.9753 7.16433 50.9741 7.40869 50.9728 7.65305C50.9723 7.81836 50.9718 7.98366 50.9714 8.14897C50.9703 8.55498 50.9686 8.961 50.9665 9.36701C50.5961 9.61754 50.2782 9.60873 49.8461 9.60822C49.7389 9.60852 49.7389 9.60852 49.6296 9.60884C49.394 9.60923 49.1585 9.60809 48.9229 9.60688C48.7591 9.60675 48.5953 9.6067 48.4315 9.60673C48.0886 9.60656 47.7457 9.60567 47.4028 9.60423C46.9627 9.6024 46.5226 9.60199 46.0825 9.60207C45.7445 9.60204 45.4065 9.60145 45.0684 9.60067C44.9061 9.60033 44.7438 9.60012 44.5814 9.60004C44.355 9.59981 44.1286 9.59887 43.9022 9.59772C43.7732 9.59731 43.6443 9.5969 43.5114 9.59647C43.2107 9.58209 43.2107 9.58209 43.0093 9.47455C43.0093 10.2198 43.0093 10.9651 43.0093 11.7329C45.7017 11.7329 48.394 11.7329 51.168 11.7329C51.168 12.9041 51.168 14.0752 51.168 15.2818C47.1793 15.2818 43.1906 15.2818 39.0811 15.2818C39.0811 10.2779 39.0811 5.27395 39.0811 0.118362Z" fill="var(--fill-0, #6B6B6B)"/>
<path id="Vector_6" d="M78.3635 19.4757C82.3522 19.4757 86.3408 19.4757 90.4504 19.4757C90.4504 20.6469 90.4504 21.818 90.4504 23.0246C87.758 23.0246 85.0657 23.0246 82.2917 23.0246C82.2917 23.7699 82.2917 24.5152 82.2917 25.283C84.9176 25.283 87.5435 25.283 90.2489 25.283C90.2489 26.4542 90.2489 27.6253 90.2489 28.8319C87.6231 28.8319 84.9972 28.8319 82.2917 28.8319C82.2917 29.5772 82.2917 30.3225 82.2917 31.0903C82.5353 31.0898 82.7789 31.0892 83.0298 31.0886C83.8327 31.0868 84.6355 31.0856 85.4384 31.0847C85.9254 31.0842 86.4124 31.0834 86.8993 31.0822C87.3689 31.081 87.8385 31.0804 88.308 31.0801C88.4876 31.0799 88.6672 31.0795 88.8467 31.0789C89.0973 31.0782 89.3479 31.0781 89.5985 31.0781C89.6735 31.0777 89.7485 31.0773 89.8258 31.0769C90.3382 31.0781 90.3382 31.0781 90.4504 31.1979C90.4504 32.3335 90.4504 33.4692 90.4504 34.6392C86.4617 34.6392 82.473 34.6392 78.3635 34.6392C78.3635 29.6353 78.3635 24.6313 78.3635 19.4757Z" fill="var(--fill-0, #6B6B6B)"/>
<path id="Vector_7" d="M18.0297 19.4757C22.0184 19.4757 26.0071 19.4757 30.1166 19.4757C30.1166 20.6469 30.1166 21.818 30.1166 23.0246C29.7534 23.1539 29.4271 23.1417 29.0497 23.1345C28.9332 23.133 28.9332 23.133 28.8144 23.1314C28.5577 23.1278 28.301 23.1235 28.0443 23.1192C27.8663 23.1165 27.6883 23.114 27.5104 23.1115C27.0419 23.1047 26.5735 23.0973 26.105 23.0897C25.627 23.0821 25.149 23.0751 24.671 23.0681C23.7331 23.0542 22.7951 23.0396 21.8572 23.0246C21.8572 23.7699 21.8572 24.5152 21.8572 25.283C24.4831 25.283 27.109 25.283 29.8144 25.283C29.8144 26.4542 29.8144 27.6253 29.8144 28.8319C27.1885 28.8319 24.5627 28.8319 21.8572 28.8319C21.8572 29.5772 21.8572 30.3225 21.8572 31.0903C22.1038 31.0898 22.3505 31.0892 22.6046 31.0886C23.4175 31.0868 24.2304 31.0856 25.0433 31.0847C25.5364 31.0842 26.0294 31.0834 26.5225 31.0822C26.998 31.081 27.4734 31.0804 27.9489 31.0801C28.1307 31.0799 28.3125 31.0795 28.4943 31.0789C28.748 31.0782 29.0018 31.0781 29.2555 31.0781C29.3314 31.0777 29.4074 31.0773 29.4856 31.0769C30.0044 31.0781 30.0044 31.0781 30.1166 31.1979C30.1166 32.3335 30.1166 33.4692 30.1166 34.6392C26.1279 34.6392 22.1392 34.6392 18.0297 34.6392C18.0297 29.6353 18.0297 24.6313 18.0297 19.4757Z" fill="var(--fill-0, #6B6B6B)"/>
<path id="Vector_8" d="M90.4504 0.118774C92.1123 0.118774 93.7743 0.118774 95.4866 0.118774C96.3074 1.99665 96.3074 1.99665 96.6394 2.78129C96.6965 2.91611 96.6965 2.91611 96.7547 3.05366C96.8338 3.24064 96.9128 3.42765 96.9918 3.61469C97.0713 3.80283 97.151 3.99089 97.2308 4.17887C97.6468 5.15824 98.0512 6.13507 98.4041 7.14253C98.5471 7.53926 98.716 7.91798 98.8923 8.29872C99.3587 9.32812 99.7932 10.3721 100.227 11.4174C100.26 11.4983 100.294 11.5791 100.329 11.6624C100.461 11.9813 100.593 12.3001 100.725 12.6191C100.901 13.0446 101.078 13.4697 101.256 13.8942C101.293 13.9836 101.331 14.0729 101.369 14.165C101.441 14.3376 101.514 14.5102 101.586 14.6827C101.832 15.2703 101.832 15.2703 101.832 15.3898C100.336 15.3898 98.8407 15.3898 97.2996 15.3898C97.1355 14.9728 96.9714 14.5558 96.8023 14.1262C96.7248 13.9299 96.7248 13.9299 96.6457 13.7297C96.6051 13.626 96.5644 13.5223 96.5225 13.4154C96.4809 13.3095 96.4392 13.2036 96.3963 13.0945C96.2924 12.8088 96.2924 12.8088 96.1916 12.3786C94.0643 12.3786 91.937 12.3786 89.7453 12.3786C89.7121 12.5561 89.6788 12.7335 89.6446 12.9163C89.5725 13.1162 89.4954 13.314 89.4144 13.5099C89.3737 13.609 89.3331 13.7081 89.2912 13.8102C89.2396 13.9344 89.1879 14.0587 89.1347 14.1867C88.9705 14.5837 88.8064 14.9807 88.6373 15.3898C87.208 15.3898 85.7788 15.3898 84.3062 15.3898C84.3796 14.998 84.4411 14.7331 84.5867 14.3812C84.6232 14.292 84.6596 14.2029 84.6971 14.1111C84.7364 14.0163 84.7756 13.9214 84.8161 13.8237C85.1335 13.0468 85.4387 12.2669 85.7289 11.4779C85.9799 10.7994 86.2451 10.1352 86.5392 9.47664C86.8066 8.87612 87.0589 8.26912 87.309 7.66019C87.3542 7.55038 87.3993 7.44058 87.4458 7.32745C87.643 6.847 87.84 6.36641 88.0369 5.88581C88.2724 5.31112 88.5081 4.7365 88.7439 4.16195C88.861 3.87643 88.9779 3.59082 89.0948 3.30519C89.1695 3.12327 89.2441 2.94136 89.3188 2.75944C89.3675 2.64006 89.3675 2.64006 89.4173 2.51826C89.7489 1.71145 90.101 0.918035 90.4504 0.118774ZM92.9685 4.09784C92.7746 4.56607 92.5811 5.03452 92.3881 5.50317C92.3226 5.66206 92.257 5.82089 92.1912 5.97965C92.0958 6.2099 92.001 6.44037 91.9061 6.67088C91.8774 6.74005 91.8486 6.80922 91.819 6.88049C91.57 7.48783 91.3691 8.09471 91.1554 8.72217C92.3853 8.72217 93.6151 8.72217 94.8822 8.72217C94.2808 7.17937 93.6779 5.63735 93.0692 4.09784C93.036 4.09784 93.0027 4.09784 92.9685 4.09784Z" fill="var(--fill-0, #6B6B6B)"/>
<path id="Vector_9" d="M6.14418 0.118774C7.80613 0.118774 9.46808 0.118774 11.1804 0.118774C12.2427 2.51318 12.2427 2.51318 12.7448 3.71724C12.9311 4.16384 13.118 4.61021 13.305 5.05648C13.4131 5.31496 13.5212 5.57346 13.6292 5.83197C13.7054 6.0136 13.7054 6.0136 13.783 6.19891C13.9925 6.70141 14.1997 7.20295 14.3855 7.71606C14.6736 8.49657 15.0155 9.25244 15.3472 10.0126C15.9373 11.3653 16.5229 12.7198 17.0853 14.0858C17.1311 14.1968 17.1769 14.3078 17.2241 14.4222C17.526 15.1601 17.526 15.1601 17.526 15.2823C16.0303 15.2823 14.5345 15.2823 12.9934 15.2823C12.8293 14.8653 12.6652 14.4483 12.4961 14.0186C12.4186 13.8224 12.4186 13.8224 12.3395 13.6222C12.2989 13.5184 12.2582 13.4147 12.2164 13.3078C12.1747 13.202 12.133 13.0961 12.0901 12.987C11.9862 12.7012 11.9862 12.7012 11.8855 12.2711C9.75816 12.2711 7.63087 12.2711 5.43911 12.2711C5.33939 12.5905 5.23967 12.9099 5.13694 13.2389C4.87102 13.9132 4.60511 14.5875 4.33114 15.2823C2.90186 15.2823 1.47259 15.2823 0 15.2823C0.0841282 14.7433 0.173298 14.42 0.383618 13.9392C0.412053 13.8734 0.440487 13.8076 0.469784 13.7398C0.530726 13.5988 0.591956 13.4579 0.65345 13.3171C1.15219 12.1741 1.62794 11.0259 2.05855 9.85136C2.35624 9.04139 2.66572 8.2491 3.01819 7.46443C3.31129 6.80906 3.58711 6.14514 3.86529 5.48245C3.89379 5.41465 3.92229 5.34685 3.95165 5.27699C4.35225 4.32327 4.74615 3.36677 5.12134 2.40127C5.42995 1.61736 5.78483 0.886114 6.14418 0.118774ZM8.66228 4.09784C8.18602 5.20221 7.72213 6.31065 7.29621 7.43838C7.24392 7.57547 7.24392 7.57547 7.19057 7.71532C7.15882 7.80041 7.12708 7.88549 7.09437 7.97315C7.06638 8.04788 7.03839 8.12261 7.00955 8.19961C6.9347 8.41581 6.9347 8.41581 6.94997 8.72217C8.14657 8.72217 9.34318 8.72217 10.576 8.72217C10.352 8.12407 10.1214 7.52912 9.88986 6.93428C9.84695 6.82351 9.80404 6.71275 9.75982 6.59863C9.28478 5.30771 9.28478 5.30771 8.66228 4.09784Z" fill="var(--fill-0, #6B6B6B)"/>
<path id="Vector_10" d="M30.5194 19.4761C31.2431 19.4377 31.9665 19.4115 32.6908 19.3934C32.9367 19.3859 33.1825 19.3757 33.4281 19.3626C35.5835 19.2506 35.5835 19.2506 36.1802 19.8C36.4493 20.1071 36.6625 20.4385 36.8612 20.8007C37.0108 21.0596 37.1978 21.273 37.3939 21.4926C37.6709 21.8165 37.6709 21.8165 37.6709 22.0572C37.7373 22.0572 37.8038 22.0572 37.8723 22.0572C38.023 22.2377 38.1667 22.4249 38.3067 22.615C38.6127 23.0294 38.9272 23.4106 39.2824 23.7778C39.8266 23.1586 40.3178 22.5368 40.752 21.8244C40.7989 21.7593 40.8457 21.6941 40.894 21.627C40.9605 21.627 41.027 21.627 41.0955 21.627C41.1266 21.5604 41.1578 21.4939 41.1899 21.4253C41.2592 21.2775 41.3284 21.1296 41.3977 20.9817C41.4641 20.9817 41.5306 20.9817 41.5991 20.9817C41.5991 20.9108 41.5991 20.8398 41.5991 20.7666C41.6656 20.7666 41.7321 20.7666 41.8006 20.7666C41.8414 20.6742 41.8414 20.6742 41.883 20.5798C42.0976 20.141 42.3368 19.7797 42.7071 19.4761C43.1 19.3615 43.4727 19.3752 43.8776 19.3921C43.9884 19.3933 44.0992 19.3946 44.2133 19.3958C44.5655 19.4006 44.9172 19.4114 45.2692 19.4224C45.5087 19.4267 45.7481 19.4306 45.9875 19.4341C46.5729 19.4436 47.1581 19.458 47.7433 19.4761C47.6614 19.7383 47.6614 19.7383 47.5418 20.0138C47.4421 20.0493 47.3424 20.0848 47.2397 20.1214C47.1699 20.2634 47.1033 20.4071 47.0382 20.5516C46.9019 20.7258 46.7608 20.8958 46.6164 21.0624C46.338 21.3866 46.0611 21.7109 45.7917 22.0437C45.444 22.4702 45.0854 22.8858 44.7268 23.3018C44.4086 23.6714 44.0964 24.0456 43.7883 24.4248C43.4328 24.859 43.069 25.2855 42.7071 25.7136C42.5371 25.9152 42.3671 26.1169 42.1972 26.3185C42.065 26.4754 41.9328 26.6322 41.8006 26.789C41.9488 27.1477 42.138 27.4018 42.386 27.6897C42.4664 27.7834 42.5468 27.8771 42.6296 27.9737C42.7225 28.0807 42.8154 28.1877 42.9085 28.2946C42.9611 28.355 43.0136 28.4154 43.0677 28.4776C43.2945 28.7381 43.5215 28.9985 43.7484 29.2589C44.1486 29.7185 44.5408 30.1837 44.923 30.6605C45.0136 30.773 45.1042 30.8854 45.1949 30.9979C45.7493 31.6865 46.3002 32.3781 46.848 33.0727C47.1934 33.5093 47.5477 33.9364 47.9081 34.359C48.0455 34.5321 48.0455 34.5321 48.0455 34.6396C47.3069 34.6505 46.5684 34.6581 45.8298 34.6632C45.5785 34.6654 45.3272 34.6683 45.076 34.6721C44.7149 34.6773 44.3539 34.6797 43.9929 34.6816C43.8804 34.6838 43.7679 34.6861 43.652 34.6884C43.4948 34.6884 43.4948 34.6884 43.3343 34.6885C43.2422 34.6894 43.15 34.6904 43.0551 34.6913C42.56 34.5878 42.3 34.0748 42.002 33.6717C41.9355 33.6008 41.869 33.5298 41.8006 33.4567C41.7155 33.3343 41.6318 33.2109 41.5487 33.087C41.2105 32.5999 40.8296 32.1622 40.4447 31.7171C40.1285 31.3415 39.8347 30.9505 39.5437 30.5526C39.3839 30.3307 39.3839 30.3307 39.1817 30.1228C38.982 30.1934 38.982 30.1934 38.7788 30.3379C38.7366 30.4583 38.7366 30.4583 38.6934 30.5812C38.5529 30.9376 38.3675 31.1473 38.1178 31.4268C37.7734 31.8203 37.4448 32.2157 37.1295 32.6366C37.0579 32.7273 36.9863 32.8179 36.9125 32.9114C36.7386 33.1421 36.5925 33.3564 36.4449 33.6034C36.1104 34.1174 35.7714 34.5535 35.1845 34.7132C34.4113 34.815 33.6372 34.767 32.8613 34.727C32.6242 34.72 32.387 34.7136 32.1499 34.7079C31.5725 34.6926 30.9957 34.6693 30.4187 34.6396C30.5595 34.3276 30.699 34.0959 30.9235 33.8448C31.0126 33.7443 31.0126 33.7443 31.1034 33.6418C31.1662 33.5718 31.229 33.5019 31.2938 33.4298C31.4229 33.2841 31.552 33.1383 31.6809 32.9925C31.7728 32.8887 31.7728 32.8887 31.8666 32.7828C32.1042 32.5122 32.3316 32.2331 32.5579 31.9519C32.7457 31.7234 32.9386 31.5003 33.1322 31.2773C33.6236 30.7113 34.0917 30.1335 34.5413 29.5284C34.7651 29.2431 35.0056 28.9862 35.2535 28.7248C35.7387 28.165 36.212 27.5951 36.6636 27.0041C36.3367 26.5991 36.007 26.1976 35.665 25.8069C35.6148 25.7492 35.5645 25.6916 35.5127 25.6322C35.4118 25.5169 35.3106 25.402 35.2089 25.2875C34.8506 24.8771 34.8506 24.8771 34.8506 24.6382C34.7509 24.6027 34.6511 24.5672 34.5484 24.5306C34.5484 24.4597 34.5484 24.3887 34.5484 24.3155C34.4819 24.3155 34.4154 24.3155 34.347 24.3155C34.347 24.2446 34.347 24.1736 34.347 24.1005C34.2805 24.1005 34.214 24.1005 34.1455 24.1005C34.1455 24.0295 34.1455 23.9585 34.1455 23.8854C34.079 23.8854 34.0126 23.8854 33.9441 23.8854C33.9041 23.8129 33.8641 23.7404 33.8229 23.6657C33.5833 23.2447 33.2801 22.9158 32.962 22.5613C32.8339 22.4167 32.7059 22.2721 32.578 22.1273C32.5174 22.0588 32.4567 21.9903 32.3942 21.9197C32.1561 21.6483 31.9276 21.3691 31.701 21.0868C31.381 20.6965 31.0466 20.3197 30.715 19.9408C30.5194 19.6912 30.5194 19.6912 30.5194 19.4761Z" fill="var(--fill-0, #6B6B6B)"/>
<path id="Vector_11" d="M98.0645 19.5418C98.2587 19.5426 98.4529 19.5432 98.647 19.5437C99.1524 19.5453 99.6577 19.5495 100.163 19.5543C100.681 19.5587 101.199 19.5607 101.717 19.5628C102.729 19.5674 103.741 19.5747 104.753 19.5838C104.589 20.1267 104.419 20.6601 104.205 21.1835C104.161 21.2915 104.117 21.3995 104.071 21.5108C104.026 21.6202 103.981 21.7295 103.935 21.8422C103.889 21.9549 103.843 22.0676 103.796 22.1838C103.457 23.0106 103.457 23.0106 103.343 23.1327C103.143 23.1444 102.942 23.1485 102.742 23.1497C102.549 23.1514 102.549 23.1514 102.352 23.153C102.282 23.1534 102.213 23.1538 102.142 23.1542C101.925 23.1554 101.708 23.1575 101.491 23.1599C100.874 23.1665 100.258 23.1723 99.6409 23.1759C99.2639 23.1782 98.887 23.182 98.5101 23.1867C98.3667 23.1883 98.2233 23.1892 98.08 23.1895C96.8838 23.1589 96.8838 23.1589 95.8895 23.778C95.8553 24.1013 95.8317 24.3267 95.8895 24.6383C96.187 24.9731 96.4632 25.1594 96.9026 25.1909C96.982 25.1916 97.0615 25.1923 97.1434 25.193C97.2792 25.1947 97.2792 25.1947 97.4177 25.1964C97.5646 25.1975 97.5646 25.1975 97.7143 25.1987C97.9231 25.2018 98.1319 25.2048 98.3407 25.208C98.6687 25.2124 98.9966 25.2164 99.3246 25.2192C102.73 25.2515 102.73 25.2515 104.073 26.5203C104.843 27.4095 104.997 28.3854 105.005 29.5517C105.006 29.6449 105.006 29.738 105.007 29.8341C104.982 31.1946 104.506 32.417 103.642 33.4131C102.653 34.2695 101.388 34.5504 100.144 34.5444C100.014 34.5445 100.014 34.5445 99.8819 34.5445C99.5974 34.5444 99.313 34.5436 99.0285 34.5427C98.8306 34.5425 98.6328 34.5424 98.4349 34.5423C97.9153 34.5419 97.3957 34.5408 96.8761 34.5396C96.3454 34.5385 95.8147 34.538 95.284 34.5375C94.2436 34.5363 93.2031 34.5345 92.1627 34.5322C92.1602 34.0441 92.1584 33.556 92.1572 33.0678C92.1567 32.9017 92.156 32.7355 92.1551 32.5693C92.1539 32.3309 92.1533 32.0926 92.1529 31.8542C92.1524 31.7795 92.1518 31.7047 92.1513 31.6278C92.1513 31.4487 92.1565 31.2698 92.1627 31.0909C92.3581 30.8823 92.7292 30.9668 92.9957 30.9664C93.0724 30.9658 93.149 30.9653 93.228 30.9647C93.3951 30.9636 93.5622 30.9626 93.7293 30.9619C93.9939 30.9606 94.2585 30.9586 94.5231 30.9562C95.2757 30.9496 96.0283 30.9438 96.7809 30.9402C97.2408 30.9379 97.7007 30.9341 98.1606 30.9293C98.3358 30.9278 98.511 30.9269 98.6862 30.9265C98.9319 30.926 99.1775 30.9235 99.4232 30.9206C99.5313 30.9211 99.5313 30.9211 99.6416 30.9216C100.108 30.9133 100.43 30.8193 100.825 30.5532C101.06 30.2439 101.06 30.2439 101.02 29.8609C100.908 29.4067 100.79 29.2909 100.422 29.0476C100.139 28.9468 99.9649 28.9262 99.6718 28.9248C99.5813 28.924 99.4908 28.9233 99.3975 28.9225C99.2996 28.922 99.2017 28.9216 99.1009 28.9211C98.8921 28.9186 98.6833 28.916 98.4745 28.9134C98.1466 28.9096 97.8186 28.9064 97.4907 28.905C95.8979 28.8965 94.3782 28.8769 93.0692 27.7571C93.036 27.6506 93.0028 27.5441 92.9685 27.4344C92.8688 27.3989 92.7691 27.3635 92.6663 27.3269C92.5314 27.0837 92.4142 26.8486 92.3012 26.5943C92.2698 26.5265 92.2384 26.4588 92.206 26.389C91.6679 25.2091 91.6851 23.7462 92.0809 22.5144C92.2872 21.98 92.5096 21.5236 92.8678 21.0894C92.9343 21.0894 93.0007 21.0894 93.0692 21.0894C93.0692 21.0185 93.0692 20.9475 93.0692 20.8744C93.299 20.6803 93.299 20.6803 93.6232 20.4576C93.726 20.3847 93.8289 20.3118 93.9348 20.2367C95.2213 19.5133 96.6527 19.5244 98.0645 19.5418Z" fill="var(--fill-0, #6B6B6B)"/>
<path id="Vector_12" d="M110.763 19.5715C110.849 19.5715 110.934 19.5714 111.022 19.5714C111.304 19.5715 111.585 19.5723 111.866 19.5732C112.062 19.5734 112.257 19.5735 112.453 19.5736C112.967 19.5741 113.48 19.5751 113.994 19.5763C114.518 19.5774 115.043 19.5779 115.568 19.5784C116.596 19.5796 117.625 19.5814 118.653 19.5837C118.581 19.9996 118.473 20.3398 118.304 20.7234C118.255 20.8362 118.205 20.9489 118.155 21.0651C118.103 21.1818 118.052 21.2984 117.998 21.4186C117.896 21.6505 117.795 21.8825 117.693 22.1147C117.648 22.2172 117.603 22.3196 117.556 22.4252C117.46 22.6635 117.399 22.8815 117.344 23.1326C117.261 23.1332 117.177 23.1338 117.092 23.1345C116.306 23.1407 115.521 23.1485 114.735 23.1579C114.332 23.1627 113.928 23.167 113.524 23.1698C113.134 23.1726 112.744 23.177 112.354 23.1824C112.206 23.1842 112.057 23.1854 111.909 23.1861C111.7 23.1871 111.492 23.1902 111.283 23.1936C111.106 23.1954 111.106 23.1954 110.924 23.1972C110.459 23.2579 110.121 23.4241 109.789 23.7778C109.731 24.1406 109.731 24.1406 109.789 24.5306C110.008 24.8135 110.187 25.0117 110.495 25.1759C110.643 25.187 110.793 25.1916 110.942 25.1929C111.081 25.1945 111.081 25.1945 111.223 25.1962C111.324 25.197 111.425 25.1978 111.529 25.1986C111.743 25.2016 111.958 25.2047 112.172 25.2078C112.509 25.2122 112.846 25.2162 113.184 25.2191C116.161 25.2465 116.161 25.2465 117.445 26.1438C117.534 26.2059 117.623 26.268 117.715 26.332C118.52 27.1679 118.886 28.1792 118.907 29.3651C118.906 29.4644 118.906 29.5636 118.905 29.6658C118.904 29.7696 118.904 29.8735 118.903 29.9805C118.874 31.2569 118.503 32.3224 117.646 33.2416C116.305 34.5512 114.622 34.6104 112.909 34.5846C112.71 34.5836 112.511 34.5828 112.313 34.5823C111.795 34.5803 111.278 34.575 110.761 34.569C110.231 34.5635 109.701 34.561 109.171 34.5583C108.135 34.5526 107.099 34.5432 106.063 34.5321C106.063 33.3609 106.063 32.1898 106.063 30.9832C106.304 30.9811 106.546 30.9789 106.794 30.9767C107.592 30.9695 108.39 30.9612 109.188 30.9523C109.672 30.9469 110.156 30.9419 110.64 30.9378C111.107 30.9338 111.574 30.9289 112.041 30.9232C112.219 30.9212 112.397 30.9195 112.575 30.9183C112.825 30.9165 113.074 30.9134 113.324 30.9099C113.397 30.9097 113.471 30.9095 113.547 30.9092C114.046 30.9005 114.439 30.8513 114.807 30.4724C114.969 30.1434 114.983 29.9526 114.926 29.5851C114.651 29.2171 114.452 29.0211 114.02 28.9399C113.867 28.93 113.714 28.9253 113.56 28.9246C113.425 28.9235 113.425 28.9235 113.286 28.9223C113.189 28.9219 113.091 28.9214 112.991 28.921C112.783 28.9185 112.574 28.9159 112.366 28.9132C112.039 28.9094 111.712 28.9063 111.385 28.9048C109.711 28.8959 108.196 28.8601 106.894 27.5956C106.781 27.4625 106.781 27.4625 106.667 27.3267C106.564 27.2103 106.564 27.2103 106.459 27.0915C106.183 26.663 106.025 26.2016 105.861 25.7136C105.824 25.613 105.786 25.5123 105.748 25.4086C105.451 24.2639 105.771 22.9367 106.288 21.9202C106.407 21.7085 106.534 21.5064 106.667 21.3044C106.723 21.2112 106.779 21.118 106.837 21.0221C107.85 19.9112 109.363 19.5647 110.763 19.5715Z" fill="var(--fill-0, #6B6B6B)"/>
<path id="Vector_13" d="M48.3477 19.4758C50.6224 19.4625 50.6224 19.4625 52.9432 19.4489C53.4194 19.445 53.8956 19.4411 54.3862 19.437C54.9745 19.4351 54.9745 19.4351 55.2512 19.4347C55.4416 19.4341 55.6319 19.4326 55.8223 19.4304C57.5967 19.4109 59.1051 19.5746 60.4853 20.9011C61.4295 21.9358 61.8299 23.2459 61.8762 24.6714C61.8501 25.8309 61.5717 26.8153 60.9382 27.7565C60.8938 27.8249 60.8494 27.8932 60.8036 27.9636C60.289 28.6798 59.5485 29.1991 58.7223 29.3697C58.689 29.4407 58.6558 29.5116 58.6215 29.5848C57.3723 29.9515 55.987 29.824 54.7059 29.8133C54.4794 29.8122 54.2529 29.8112 54.0264 29.8103C53.4764 29.8082 52.9266 29.804 52.3766 29.7998C52.3766 31.3968 52.3766 32.9939 52.3766 34.6393C51.0471 34.6393 49.7175 34.6393 48.3477 34.6393C48.3477 29.6353 48.3477 24.6314 48.3477 19.4758ZM52.2759 23.0247C52.2759 24.0539 52.2759 25.083 52.2759 26.1434C52.8942 26.1533 53.5123 26.1619 54.1307 26.167C54.3408 26.1692 54.551 26.1721 54.7611 26.1759C55.0639 26.1811 55.3666 26.1835 55.6694 26.1854C55.8094 26.1887 55.8094 26.1887 55.9522 26.1921C56.5605 26.1924 56.916 26.0952 57.4128 25.7132C57.7074 25.277 57.7755 24.8688 57.7563 24.3416C57.6856 23.9279 57.5109 23.6186 57.2114 23.3473C56.6304 23.0208 56.1621 22.981 55.5121 22.9932C55.3727 22.9939 55.3727 22.9939 55.2305 22.9945C54.936 22.9963 54.6416 23.0004 54.347 23.0045C54.1464 23.0061 53.9459 23.0076 53.7453 23.0089C53.2554 23.0122 52.7657 23.0185 52.2759 23.0247Z" fill="var(--fill-0, #6B6B6B)"/>
<path id="Vector_14" d="M81.9144 0.0004361C82.0293 0.000588267 82.1443 0.000740434 82.2628 0.000897211C82.627 0.00149526 82.9913 0.0028444 83.3556 0.00421689C83.6038 0.00475675 83.852 0.00524737 84.1002 0.00568719C84.7061 0.00677583 85.3119 0.00888183 85.9178 0.0109383C85.9178 1.28854 85.9178 2.56615 85.9178 3.88247C85.5839 3.88524 85.2501 3.88801 84.9062 3.89087C84.5788 3.89501 84.2514 3.89986 83.9241 3.90478C83.6985 3.9078 83.473 3.91009 83.2474 3.91161C80.9715 3.87487 80.9715 3.87487 79.0492 5.03435C78.7517 5.43642 78.5951 5.86672 78.4642 6.35594C78.4451 6.41985 78.426 6.48376 78.4063 6.5496C78.1849 7.77077 78.3107 9.16416 78.8922 10.2468C79.3316 10.8678 80.0039 11.1698 80.6801 11.4104C80.9476 11.4269 81.213 11.4381 81.4808 11.4445C81.5975 11.4478 81.5975 11.4478 81.7166 11.4512C81.9649 11.4583 82.2133 11.4646 82.4617 11.4709C82.6301 11.4756 82.7986 11.4803 82.9671 11.485C83.3798 11.4965 83.7926 11.5074 84.2054 11.518C84.1495 11.8577 84.0793 12.1517 83.9399 12.4628C83.9069 12.537 83.8739 12.6112 83.8399 12.6877C83.8047 12.7653 83.7696 12.8428 83.7333 12.9228C83.6975 13.0029 83.6616 13.083 83.6247 13.1655C83.3223 13.8392 83.0118 14.5085 82.6946 15.1744C80.1488 15.2441 77.861 15.0105 75.9146 13.0505C75.3988 12.476 74.9274 11.8022 74.785 11.0059C74.7693 10.9265 74.7536 10.847 74.7374 10.7652C74.6709 10.7297 74.6044 10.6942 74.5359 10.6576C73.8555 8.09168 74.1081 5.33638 75.3102 3.00868C76.2776 1.38526 77.7183 0.647254 79.4112 0.192836C80.2489 0.0209566 81.0641 -0.00385855 81.9144 0.0004361Z" fill="var(--fill-0, #6B6B6B)"/>
<path id="Vector_15" d="M68.5932 0.118774C69.8895 0.118774 71.1858 0.118774 72.5214 0.118774C72.5214 5.12272 72.5214 10.1267 72.5214 15.2823C71.1919 15.2823 69.8623 15.2823 68.4925 15.2823C68.4902 13.3211 68.4883 11.3599 68.4872 9.39868C68.4867 8.48812 68.486 7.57757 68.4849 6.66702C68.4839 5.87367 68.4832 5.08033 68.483 4.28698C68.4828 3.86665 68.4825 3.44632 68.4818 3.02599C68.4811 2.63081 68.4809 2.23563 68.4811 1.84045C68.481 1.62536 68.4805 1.41026 68.4799 1.19517C68.4801 1.06834 68.4802 0.941505 68.4803 0.810831C68.4802 0.699902 68.4802 0.588974 68.4801 0.474684C68.4925 0.226317 68.4925 0.226317 68.5932 0.118774Z" fill="var(--fill-0, #6B6B6B)"/>
</g>
</svg>
