<svg preserveAspectRatio="none" width="100%" height="100%" overflow="visible" style="display: block;" viewBox="0 0 81.7029 71.6561" fill="none" xmlns="http://www.w3.org/2000/svg">
<g id="Layer 1">
<g id="Vector">
</g>
<g id="&#60;Group&#62;">
<path id="Vector_2" d="M49.6173 13.5982H32.0857V47.2869H49.6173V13.5982Z" fill="var(--fill-0, #5C5C5C)"/>
<path id="&#60;Path&#62;" d="M33.1987 30.4453C33.1955 27.2004 33.8828 23.9972 35.2087 21.0784C36.5345 18.1595 38.4641 15.6015 40.8514 13.598C37.8956 11.1142 34.3458 9.56967 30.6079 9.14093C26.87 8.7122 23.0946 9.41657 19.7133 11.1735C16.3321 12.9305 13.4813 15.6692 11.4869 19.0766C9.49243 22.484 8.43477 26.4226 8.43477 30.4424C8.43477 34.4621 9.49243 38.4007 11.4869 41.8081C13.4813 45.2155 16.3321 47.9542 19.7133 49.7112C23.0946 51.4681 26.87 52.1725 30.6079 51.7438C34.3458 51.315 37.8956 49.7705 40.8514 47.2867C38.4649 45.2838 36.5357 42.7268 35.2099 39.809C33.8841 36.8912 33.1963 33.6892 33.1987 30.4453Z" fill="var(--fill-0, #6B6B6B)"/>
<path id="Vector_3" d="M73.271 30.4456C73.2709 34.4656 72.213 38.4045 70.2182 41.812C68.2234 45.2195 65.3722 47.9582 61.9905 49.7149C58.6088 51.4716 54.8331 52.1755 51.095 51.7462C47.3568 51.3168 43.807 49.7715 40.8514 47.287C43.237 45.2823 45.1656 42.7245 46.4918 39.8066C47.818 36.8887 48.5071 33.6869 48.5071 30.4426C48.5071 27.1984 47.818 23.9965 46.4918 21.0786C45.1656 18.1607 43.237 15.6029 40.8514 13.5983C43.807 11.1137 47.3568 9.56841 51.095 9.13906C54.8331 8.70971 58.6088 9.41363 61.9905 11.1704C65.3722 12.9271 68.2234 15.6657 70.2182 19.0732C72.213 22.4807 73.2709 26.4196 73.271 30.4397V30.4456Z" fill="var(--fill-0, #5C5C5C)"/>
<path id="Vector_4" d="M20.2309 34.4562V30.8856C20.2504 30.5853 20.2098 30.284 20.1118 30.0018C20.0138 29.7196 19.8607 29.463 19.6627 29.249C19.4647 29.0351 19.2263 28.8687 18.9635 28.7609C18.7006 28.6532 18.4193 28.6066 18.1382 28.6242C17.7704 28.5984 17.4028 28.6787 17.0739 28.8567C16.7449 29.0346 16.4667 29.3037 16.2682 29.6359C16.0873 29.3137 15.8284 29.0496 15.5189 28.8716C15.2094 28.6935 14.8606 28.6081 14.5095 28.6242C14.2034 28.6077 13.8986 28.6769 13.6252 28.8252C13.3519 28.9734 13.1195 29.1954 12.9511 29.4693V28.767H11.7935V34.4562H12.9622V31.326C12.9374 31.1314 12.953 30.9334 13.0081 30.7461C13.0631 30.5587 13.1561 30.3867 13.2806 30.2423C13.405 30.0979 13.5577 29.9847 13.7278 29.9107C13.8979 29.8367 14.0812 29.8039 14.2646 29.8144C15.0326 29.8144 15.4222 30.35 15.4222 31.3141V34.48H16.591V31.326C16.5672 31.1316 16.5835 30.934 16.6389 30.7472C16.6943 30.5603 16.7874 30.3888 16.9116 30.2446C17.0359 30.1004 17.1882 29.9872 17.3578 29.9128C17.5274 29.8385 17.7103 29.8049 17.8934 29.8144C18.6837 29.8144 19.0621 30.35 19.0621 31.3141V34.48L20.2309 34.4562ZM37.5232 28.767H35.6198V27.0413H34.451V28.767H33.3935V29.8977H34.4733V32.5162C34.4733 33.8373 34.9519 34.6228 36.321 34.6228C36.8325 34.6247 37.3341 34.472 37.7681 34.1825L37.4342 33.1232C37.1237 33.3212 36.7714 33.4317 36.4101 33.4445C35.8535 33.4445 35.642 33.0637 35.642 32.4924V29.8977H37.5343L37.5232 28.767ZM47.3966 28.6242C47.1143 28.6153 46.835 28.6881 46.5882 28.8347C46.3414 28.9813 46.1361 29.1964 45.994 29.4574V28.767H44.8475V34.4562H46.0052V31.2665C46.0052 30.3262 46.3836 29.8025 47.1183 29.8025C47.3659 29.7989 47.6117 29.8474 47.8418 29.9453L48.198 28.7551C47.9336 28.654 47.6551 28.6017 47.3743 28.6004L47.3966 28.6242ZM32.4696 29.2193C31.8144 28.8027 31.061 28.5962 30.2991 28.6242C28.9522 28.6242 28.0728 29.3145 28.0728 30.4452C28.0728 31.3736 28.7184 31.9449 29.9095 32.1234L30.466 32.2067C31.1005 32.3019 31.401 32.4805 31.401 32.8018C31.401 33.2422 30.9781 33.4921 30.1878 33.4921C29.5521 33.5118 28.9287 33.3022 28.4179 32.897L27.8613 33.8611C28.5357 34.3646 29.3434 34.6232 30.1655 34.599C31.7016 34.599 32.5921 33.8254 32.5921 32.7423C32.5921 31.6592 31.8908 31.2189 30.7332 31.0403L30.1766 30.957C29.6757 30.8856 29.275 30.7785 29.275 30.3976C29.275 30.0168 29.6535 29.7311 30.2879 29.7311C30.8744 29.7384 31.4492 29.9064 31.9576 30.2191L32.4696 29.2193ZM63.4756 28.6242C63.1933 28.6153 62.914 28.6881 62.6672 28.8347C62.4204 28.9813 62.2151 29.1964 62.073 29.4574V28.767H60.9265V34.4562H62.0842V31.2665C62.0842 30.3262 62.4626 29.8025 63.1973 29.8025C63.4449 29.7989 63.6907 29.8474 63.9208 29.9453L64.277 28.7551C64.0126 28.654 63.7341 28.6017 63.4533 28.6004L63.4756 28.6242ZM48.5598 31.5997C48.546 31.9995 48.6104 32.398 48.749 32.7696C48.8875 33.1413 49.097 33.4779 49.3642 33.758C49.6314 34.0381 49.9503 34.2554 50.3005 34.3961C50.6508 34.5369 51.0247 34.5979 51.3982 34.5752C52.0933 34.613 52.7764 34.371 53.3128 33.8968L52.7562 32.897C52.356 33.2233 51.8681 33.4028 51.3648 33.4088C50.9369 33.3718 50.5377 33.1639 50.2467 32.8265C49.9556 32.4891 49.794 32.0469 49.794 31.5878C49.794 31.1288 49.9556 30.6866 50.2467 30.3492C50.5377 30.0117 50.9369 29.8038 51.3648 29.7668C51.8681 29.7728 52.356 29.9523 52.7562 30.2786L53.3128 29.2788C52.7764 28.8047 52.0933 28.5626 51.3982 28.6004C51.0247 28.5778 50.6508 28.6388 50.3005 28.7795C49.9503 28.9202 49.6314 29.1376 49.3642 29.4177C49.097 29.6977 48.8875 30.0344 48.749 30.406C48.6104 30.7777 48.546 31.1761 48.5598 31.5759V31.5997ZM59.4015 31.5997V28.767H58.2439V29.4574C58.0473 29.1869 57.7934 28.9703 57.5031 28.8254C57.2127 28.6806 56.8944 28.6116 56.5742 28.6242C55.8362 28.6242 55.1284 28.9377 54.6065 29.4957C54.0846 30.0537 53.7914 30.8106 53.7914 31.5997C53.7914 32.3889 54.0846 33.1457 54.6065 33.7037C55.1284 34.2617 55.8362 34.5752 56.5742 34.5752C56.8944 34.5879 57.2127 34.5189 57.5031 34.374C57.7934 34.2292 58.0473 34.0126 58.2439 33.7421V34.4324H59.4015V31.5997ZM55.0938 31.5997C55.1122 31.2648 55.2219 30.943 55.4092 30.674C55.5966 30.4049 55.8534 30.2002 56.1481 30.0853C56.4429 29.9703 56.7626 29.95 57.068 30.0268C57.3734 30.1037 57.6511 30.2744 57.8669 30.5179C58.0827 30.7614 58.2272 31.067 58.2826 31.3972C58.338 31.7274 58.3019 32.0677 58.1787 32.3762C58.0555 32.6847 57.8506 32.948 57.5893 33.1336C57.3279 33.3192 57.0215 33.419 56.7078 33.4207C56.4874 33.4237 56.2689 33.3779 56.0659 33.2862C55.8629 33.1945 55.6798 33.0588 55.5282 32.8878C55.3766 32.7167 55.2597 32.514 55.185 32.2923C55.1102 32.0707 55.0792 31.8349 55.0938 31.5997ZM41.1241 28.6242C40.3861 28.6353 39.6824 28.9594 39.1678 29.5252C38.6532 30.091 38.37 30.8522 38.3803 31.6414C38.3906 32.4305 38.6937 33.183 39.2229 33.7332C39.7521 34.2834 40.464 34.5863 41.2021 34.5752C42.0028 34.6192 42.7903 34.3435 43.4116 33.8016L42.855 32.8851C42.4156 33.262 41.8711 33.4714 41.3078 33.4802C40.9251 33.5154 40.5447 33.3896 40.2475 33.1296C39.9502 32.8695 39.7596 32.4957 39.716 32.0877H43.6676C43.6676 31.933 43.6676 31.7783 43.6676 31.6116C43.6676 29.8263 42.6324 28.6361 41.1408 28.6361L41.1241 28.6242ZM41.1241 29.7311C41.2974 29.7272 41.4696 29.7597 41.6311 29.827C41.7925 29.8943 41.94 29.9949 42.0651 30.1231C42.1902 30.2513 42.2904 30.4046 42.36 30.5742C42.4297 30.7439 42.4674 30.9265 42.471 31.1117H39.6882C39.7084 30.7297 39.8676 30.3713 40.1318 30.1133C40.396 29.8552 40.7442 29.7181 41.1019 29.7311H41.1241ZM70.1264 31.6116V26.4819H69.0133V29.4574C68.8167 29.1869 68.5628 28.9703 68.2725 28.8254C67.9822 28.6806 67.6638 28.6116 67.3436 28.6242C66.6056 28.6242 65.8978 28.9377 65.3759 29.4957C64.854 30.0537 64.5608 30.8106 64.5608 31.5997C64.5608 32.3889 64.854 33.1457 65.3759 33.7037C65.8978 34.2617 66.6056 34.5752 67.3436 34.5752C67.6638 34.5879 67.9822 34.5189 68.2725 34.374C68.5628 34.2292 68.8167 34.0126 69.0133 33.7421V34.4324H70.1264V31.6116ZM72.0577 33.629C72.1301 33.6281 72.2019 33.6422 72.2692 33.6707C72.3331 33.6986 72.3916 33.7389 72.4417 33.7897C72.4906 33.841 72.5302 33.9015 72.5586 33.9682C72.5868 34.0377 72.6013 34.1127 72.6013 34.1884C72.6013 34.2642 72.5868 34.3391 72.5586 34.4086C72.5302 34.4753 72.4906 34.5358 72.4417 34.5871C72.3916 34.6379 72.3331 34.6783 72.2692 34.7062C72.2026 34.7376 72.1305 34.7538 72.0577 34.7538C71.9522 34.7529 71.8491 34.72 71.7604 34.6589C71.6717 34.5978 71.6011 34.511 71.5568 34.4086C71.5289 34.339 71.5146 34.2641 71.5146 34.1884C71.5146 34.1127 71.5289 34.0378 71.5568 33.9682C71.5851 33.9015 71.6248 33.841 71.6737 33.7897C71.7238 33.7389 71.7823 33.6986 71.8462 33.6707C71.9187 33.6398 71.9964 33.6257 72.0744 33.629H72.0577ZM72.0577 34.6347C72.1132 34.6351 72.1682 34.6229 72.2191 34.599C72.267 34.5762 72.3104 34.5439 72.3471 34.5038C72.4167 34.4226 72.4553 34.3164 72.4553 34.2063C72.4553 34.0961 72.4167 33.9899 72.3471 33.9087C72.3105 33.8686 72.267 33.8362 72.2191 33.8135C72.1682 33.7898 72.1132 33.7776 72.0577 33.7778C72.0022 33.7781 71.9473 33.7902 71.8963 33.8135C71.8463 33.8354 71.8009 33.8678 71.7627 33.9087C71.6931 33.9899 71.6545 34.0961 71.6545 34.2063C71.6545 34.3164 71.6931 34.4226 71.7627 34.5038C71.801 34.5446 71.8464 34.577 71.8963 34.599C71.9524 34.6249 72.0133 34.6371 72.0744 34.6347H72.0577ZM72.0911 33.9266C72.143 33.9239 72.1942 33.9407 72.2358 33.9742C72.2528 33.9893 72.2663 34.0085 72.275 34.0302C72.2837 34.0519 72.2874 34.0756 72.2859 34.0992C72.2867 34.1189 72.2836 34.1386 72.2769 34.1571C72.2702 34.1755 72.26 34.1923 72.2469 34.2063C72.2147 34.2376 72.1735 34.2565 72.1301 34.2598L72.2915 34.4562H72.1634L72.0132 34.2598H71.9631V34.4562H71.8573V33.9325L72.0911 33.9266ZM71.9686 34.0277V34.1706H72.0911C72.1129 34.1775 72.1361 34.1775 72.1579 34.1706C72.1618 34.1623 72.1638 34.1531 72.1638 34.1438C72.1638 34.1345 72.1618 34.1253 72.1579 34.117C72.1618 34.1087 72.1638 34.0995 72.1638 34.0902C72.1638 34.0809 72.1618 34.0717 72.1579 34.0634C72.1361 34.0565 72.1129 34.0565 72.0911 34.0634L71.9686 34.0277ZM65.8465 31.6116C65.865 31.2768 65.9746 30.9549 66.1619 30.6859C66.3493 30.4168 66.6061 30.2121 66.9009 30.0972C67.1956 29.9822 67.5153 29.9619 67.8207 30.0387C68.1261 30.1156 68.4038 30.2863 68.6196 30.5298C68.8354 30.7733 68.9799 31.0789 69.0353 31.4091C69.0907 31.7393 69.0546 32.0796 68.9314 32.3881C68.8082 32.6967 68.6034 32.9599 68.342 33.1455C68.0807 33.3311 67.7742 33.4309 67.4605 33.4326C67.2402 33.4356 67.0216 33.3898 66.8186 33.2981C66.6156 33.2064 66.4325 33.0707 66.2809 32.8997C66.1293 32.7286 66.0125 32.5259 65.9377 32.3042C65.8629 32.0826 65.8319 31.8468 65.8465 31.6116ZM26.7593 31.6116V28.767H25.6017V29.4574C25.4051 29.1869 25.1512 28.9703 24.8609 28.8254C24.5706 28.6806 24.2522 28.6116 23.932 28.6242C23.194 28.6242 22.4862 28.9377 21.9643 29.4957C21.4424 30.0537 21.1492 30.8106 21.1492 31.5997C21.1492 32.3889 21.4424 33.1457 21.9643 33.7037C22.4862 34.2617 23.194 34.5752 23.932 34.5752C24.2522 34.5879 24.5706 34.5189 24.8609 34.374C25.1512 34.2292 25.4051 34.0126 25.6017 33.7421V34.4324H26.7593V31.6116ZM22.4516 31.6116C22.47 31.2768 22.5797 30.9549 22.767 30.6859C22.9544 30.4168 23.2112 30.2121 23.506 30.0972C23.8007 29.9822 24.1204 29.9619 24.4258 30.0387C24.7312 30.1156 25.0089 30.2863 25.2247 30.5298C25.4405 30.7733 25.585 31.0789 25.6404 31.4091C25.6958 31.7393 25.6597 32.0796 25.5365 32.3881C25.4133 32.6967 25.2084 32.9599 24.9471 33.1455C24.6857 33.3311 24.3793 33.4309 24.0656 33.4326C23.8443 33.4373 23.6245 33.3927 23.4202 33.3017C23.2159 33.2107 23.0314 33.0753 22.8786 32.9041C22.7258 32.7329 22.608 32.5296 22.5326 32.3071C22.4571 32.0846 22.4258 31.8478 22.4404 31.6116H22.4516Z" fill="var(--fill-0, #979797)"/>
</g>
</g>
</svg>
