<svg preserveAspectRatio="none" width="100%" height="100%" overflow="visible" style="display: block;" viewBox="0 0 142.251 37.204" fill="none" xmlns="http://www.w3.org/2000/svg">
<g id="paypal-3" clip-path="url(#clip0_0_5)">
<path id="Vector" d="M53.2012 9.16672H45.3322C45.0717 9.16655 44.8197 9.25787 44.6216 9.42422C44.4235 9.59057 44.2924 9.82101 44.2518 10.074L41.0692 29.9136C41.0546 30.0057 41.0605 30.0998 41.0864 30.1894C41.1123 30.279 41.1576 30.3621 41.2193 30.4328C41.281 30.5036 41.3575 30.5603 41.4436 30.5992C41.5297 30.6381 41.6234 30.6581 41.7182 30.658H45.4749C45.7356 30.6581 45.9877 30.5666 46.1858 30.4001C46.3839 30.2335 46.515 30.0028 46.5553 29.7496L47.4136 24.3985C47.454 24.1455 47.5848 23.915 47.7827 23.7484C47.9806 23.5819 48.2324 23.4902 48.4929 23.4901H50.984C56.1674 23.4901 59.159 21.0239 59.9402 16.1367C60.2923 13.9985 59.9552 12.3185 58.9369 11.142C57.8185 9.85002 55.8349 9.16672 53.2012 9.16672ZM54.109 16.4127C53.6787 19.1889 51.5213 19.1889 49.4352 19.1889H48.2478L49.0809 14.0042C49.1053 13.8525 49.1839 13.7143 49.3026 13.6146C49.4214 13.5148 49.5725 13.46 49.7287 13.46H50.2729C51.6939 13.46 53.0343 13.46 53.727 14.2564C54.14 14.7316 54.2666 15.4375 54.109 16.4127ZM76.7228 16.3233H72.9546C72.7984 16.3233 72.6474 16.3781 72.5286 16.4779C72.4099 16.5776 72.3312 16.7158 72.3068 16.8675L72.14 17.9037L71.8765 17.5281C71.0607 16.364 69.2416 15.9749 67.426 15.9749C63.262 15.9749 59.7055 19.0758 59.0128 23.4256C58.6527 25.5954 59.1647 27.6702 60.4166 29.1172C61.5649 30.4476 63.2079 31.0019 65.1628 31.0019C68.5179 31.0019 70.3784 28.8807 70.3784 28.8807L70.2104 29.9102C70.1955 30.0023 70.201 30.0964 70.2266 30.1862C70.2522 30.2759 70.2973 30.3591 70.3587 30.4301C70.4202 30.5011 70.4966 30.5581 70.5826 30.5972C70.6686 30.6364 70.7623 30.6567 70.8571 30.6569H74.2513C74.512 30.657 74.7642 30.5655 74.9623 30.3989C75.1604 30.2324 75.2914 30.0017 75.3318 29.7484L77.3683 17.0677C77.3833 16.9759 77.3778 16.8819 77.3523 16.7924C77.3267 16.7028 77.2817 16.6198 77.2204 16.549C77.159 16.4782 77.0827 16.4214 76.9968 16.3824C76.9109 16.3435 76.8174 16.3233 76.7228 16.3233ZM71.4704 23.5342C71.1068 25.6509 69.3981 27.0718 67.2189 27.0718C66.1247 27.0718 65.2502 26.7267 64.6887 26.0729C64.1318 25.4235 63.9201 24.4992 64.0973 23.4697C64.4367 21.3712 66.1742 19.9039 68.32 19.9039C69.3901 19.9039 70.2599 20.2534 70.8329 20.913C71.4071 21.5793 71.6349 22.5093 71.4704 23.5342ZM96.7916 16.3233H93.0049C92.8264 16.3236 92.6506 16.3667 92.4928 16.4489C92.335 16.5311 92.1999 16.6499 92.0994 16.7951L86.8769 24.3589L84.6631 17.0903C84.5952 16.8686 84.4564 16.6744 84.2674 16.5362C84.0784 16.3981 83.8493 16.3234 83.6138 16.3233H79.8927C79.7883 16.323 79.6853 16.3473 79.5923 16.3941C79.4993 16.4409 79.419 16.5088 79.3581 16.5922C79.2972 16.6757 79.2575 16.7722 79.2422 16.8738C79.2269 16.9754 79.2365 17.0791 79.2703 17.1763L83.4412 29.2111L79.5199 34.6538C79.4502 34.7503 79.4089 34.8638 79.4005 34.9818C79.392 35.0999 79.4168 35.2179 79.472 35.3231C79.5273 35.4282 79.6109 35.5164 79.7137 35.5779C79.8165 35.6395 79.9346 35.672 80.055 35.6719H83.837C84.0136 35.6722 84.1876 35.6303 84.3441 35.5499C84.5006 35.4695 84.6349 35.353 84.7356 35.2104L97.33 17.3358C97.3983 17.2391 97.4383 17.1259 97.4458 17.0084C97.4533 16.8909 97.4279 16.7737 97.3724 16.6694C97.317 16.565 97.2335 16.4776 97.1311 16.4166C97.0287 16.3556 96.9113 16.3234 96.7916 16.3233Z" fill="var(--fill-0, #6B6B6B)"/>
<path id="Vector_2" d="M109.328 9.16671H101.458C101.198 9.16682 100.946 9.25827 100.749 9.42459C100.551 9.59091 100.42 9.8212 100.379 10.074L97.1966 29.9136C97.1818 30.0055 97.1874 30.0995 97.2131 30.189C97.2388 30.2786 97.2839 30.3616 97.3454 30.4324C97.4068 30.5031 97.4832 30.5599 97.5691 30.5989C97.6551 30.6378 97.7486 30.658 97.8432 30.658H101.882C102.064 30.6578 102.24 30.5936 102.378 30.477C102.517 30.3605 102.608 30.1992 102.637 30.0222L103.54 24.3985C103.58 24.1455 103.711 23.915 103.909 23.7484C104.107 23.5819 104.359 23.4902 104.619 23.4901H107.109C112.294 23.4901 115.284 21.0239 116.066 16.1367C116.42 13.9985 116.08 12.3185 115.062 11.142C113.945 9.85002 111.962 9.16671 109.328 9.16671ZM110.236 16.4127C109.807 19.1889 107.65 19.1889 105.563 19.1889H104.376L105.21 14.0042C105.234 13.8525 105.313 13.7142 105.431 13.6144C105.55 13.5146 105.701 13.4598 105.857 13.46H106.401C107.821 13.46 109.163 13.46 109.855 14.2564C110.269 14.7316 110.394 15.4375 110.236 16.4127ZM132.849 16.3233H129.083C128.927 16.3229 128.776 16.3776 128.657 16.4774C128.538 16.5773 128.46 16.7157 128.436 16.8675L128.27 17.9037L128.005 17.5281C127.189 16.364 125.371 15.9749 123.556 15.9749C119.392 15.9749 115.836 19.0758 115.144 23.4256C114.785 25.5954 115.294 27.6703 116.546 29.1172C117.697 30.4476 119.338 31.0019 121.292 31.0019C124.648 31.0019 126.508 28.8807 126.508 28.8807L126.34 29.9102C126.325 30.0025 126.331 30.0968 126.356 30.1867C126.382 30.2766 126.427 30.36 126.489 30.431C126.551 30.502 126.627 30.559 126.714 30.598C126.8 30.637 126.894 30.6571 126.989 30.6569H130.382C130.643 30.6567 130.894 30.5651 131.092 30.3986C131.29 30.232 131.421 30.0015 131.461 29.7484L133.499 17.0677C133.514 16.9756 133.508 16.8815 133.481 16.7918C133.455 16.7022 133.41 16.6192 133.348 16.5485C133.286 16.4777 133.21 16.421 133.124 16.3821C133.038 16.3433 132.944 16.3232 132.849 16.3233ZM127.597 23.5342C127.235 25.6509 125.524 27.0718 123.345 27.0718C122.253 27.0718 121.376 26.7267 120.815 26.0729C120.258 25.4235 120.049 24.4992 120.223 23.4697C120.565 21.3712 122.3 19.9039 124.446 19.9039C125.516 19.9039 126.386 20.2534 126.959 20.913C127.536 21.5793 127.763 22.5093 127.597 23.5342ZM137.291 9.71087L134.062 29.9136C134.047 30.0055 134.053 30.0995 134.078 30.189C134.104 30.2786 134.149 30.3616 134.211 30.4324C134.272 30.5031 134.348 30.5599 134.434 30.5989C134.52 30.6378 134.614 30.658 134.708 30.658H137.955C138.495 30.658 138.953 30.2734 139.036 29.7496L142.221 9.91111C142.235 9.81915 142.23 9.72513 142.204 9.63552C142.178 9.54591 142.133 9.46283 142.072 9.39199C142.01 9.32115 141.934 9.26424 141.848 9.22515C141.762 9.18607 141.669 9.16575 141.574 9.16558H137.938C137.782 9.16613 137.631 9.2213 137.513 9.32122C137.394 9.42113 137.316 9.55927 137.291 9.71087Z" fill="var(--fill-0, #5C5C5C)"/>
<path id="Vector_3" d="M8.39112 34.5135L8.99288 30.7553L7.65243 30.7248H1.25166L5.69987 2.99321C5.71311 2.90848 5.75688 2.83125 5.8232 2.7756C5.88952 2.71994 5.97397 2.68957 6.06116 2.69003H16.8538C20.4367 2.69003 22.9094 3.42311 24.2003 4.87004C24.8055 5.54882 25.191 6.25814 25.3774 7.03874C25.573 7.8578 25.5764 8.83638 25.3854 10.0299L25.3716 10.117V10.8818L25.9769 11.2189C26.4389 11.449 26.8542 11.7604 27.2022 12.1375C27.72 12.7179 28.0548 13.4555 28.1964 14.33C28.3425 15.2293 28.2942 16.2996 28.0548 17.5112C27.7787 18.9049 27.3323 20.1188 26.7293 21.1121C26.1974 22.0019 25.4821 22.7726 24.6295 23.3747C23.8287 23.9336 22.8771 24.3578 21.8013 24.6293C20.7589 24.8963 19.5703 25.0309 18.2667 25.0309H17.4268C16.8262 25.0309 16.2428 25.2436 15.7849 25.6249C15.3276 26.0102 15.0242 26.5426 14.9288 27.1272L14.8655 27.4655L13.8024 34.0892L13.7541 34.3325C13.7414 34.4094 13.7195 34.4479 13.6873 34.4739C13.6561 34.499 13.6172 34.5129 13.5769 34.5135H8.39112Z" fill="var(--fill-0, #6B6B6B)"/>
<path id="Vector_4" d="M26.5499 10.2052C26.5176 10.4077 26.4808 10.6148 26.4394 10.8275C25.0161 18.0123 20.1468 20.4944 13.9278 20.4944H10.7613C10.0008 20.4944 9.35992 21.0374 9.24141 21.775L7.62022 31.8843L7.16113 34.7499C7.14284 34.8636 7.14982 34.9798 7.18159 35.0906C7.21337 35.2013 7.26917 35.304 7.34517 35.3915C7.42117 35.479 7.51556 35.5493 7.62183 35.5975C7.72811 35.6457 7.84375 35.6707 7.96079 35.6708H13.5769C14.2419 35.6708 14.8069 35.1957 14.9116 34.5508L14.9668 34.2703L16.0242 27.6725L16.0921 27.3105C16.1956 26.6634 16.7617 26.1882 17.4268 26.1882H18.2667C23.7079 26.1882 27.9674 24.0162 29.2123 17.7307C29.7324 15.1049 29.4632 12.9124 28.0871 11.3705C27.6509 10.8935 27.13 10.4986 26.5499 10.2052Z" fill="var(--fill-0, #5C5C5C)"/>
<path id="Vector_5" d="M25.061 9.6215C24.6065 9.49224 24.1442 9.39135 23.6768 9.31944C22.7533 9.17988 21.8198 9.11293 20.8855 9.1192H12.4263C12.1043 9.11896 11.7929 9.23196 11.5484 9.43778C11.3038 9.64361 11.1422 9.92867 11.0927 10.2414L9.29319 21.4481L9.24141 21.775C9.29747 21.4183 9.48154 21.0931 9.76033 20.8582C10.0391 20.6233 10.3942 20.4942 10.7613 20.4944H13.9278C20.1468 20.4944 25.0161 18.0112 26.4394 10.8275C26.482 10.6148 26.5176 10.4077 26.5499 10.2052C26.1743 10.0116 25.7829 9.84926 25.3797 9.71992C25.274 9.68544 25.1677 9.65263 25.061 9.6215Z" fill="var(--fill-0, #979797)"/>
<path id="Vector_6" d="M11.0928 10.2415C11.1418 9.92859 11.3033 9.64339 11.548 9.43767C11.7927 9.23195 12.1044 9.11935 12.4263 9.12033H20.8855C21.8877 9.12033 22.8231 9.18482 23.6769 9.32057C24.2546 9.40985 24.8243 9.54337 25.3809 9.71992C25.8009 9.85681 26.1909 10.0186 26.5511 10.2052C26.9745 7.55009 26.5476 5.74227 25.0875 4.10528C23.4778 2.30312 20.5726 1.53158 16.855 1.53158H6.06236C5.30297 1.53158 4.65518 2.0746 4.53782 2.81334L0.042431 30.83C0.0214923 30.96 0.0294587 31.093 0.0657825 31.2198C0.102106 31.3466 0.165925 31.4641 0.252849 31.5643C0.339773 31.6645 0.44774 31.745 0.569322 31.8002C0.690904 31.8555 0.823216 31.8842 0.957157 31.8843H7.62027L9.29324 21.4481L11.0928 10.2415Z" fill="var(--fill-0, #6B6B6B)"/>
</g>
<defs>
<clipPath id="clip0_0_5">
<rect width="142.251" height="37.204" fill="white"/>
</clipPath>
</defs>
</svg>
